<?xml version="1.0" encoding="UTF-8"?>
<svg version="1.1" xmlns="http://www.w3.org/2000/svg" width="520" height="480">
<path d="M0 0 C1.47739016 0.44346205 2.95634752 0.88177085 4.4375 1.3125 C10.91810432 3.45627405 16.94498305 6.85611866 22.99658203 9.97607422 C25.72805681 11.37210215 28.4810017 12.72375828 31.23608398 14.07250977 C33 15 33 15 36 17 C36 17.66 36 18.32 36 19 C36.75023437 19.103125 37.50046875 19.20625 38.2734375 19.3125 C41.26791147 20.06755361 42.41536556 20.89744035 44.625 23 C47.84403732 25.96954672 51.14394913 28.76140781 54.5625 31.5 C73.65055021 47.09601351 86.97572465 67.70764347 97 90 C100.85341823 98.60905482 100.85341823 98.60905482 108.0625 104.1875 C115.68399825 108.20995741 121.7810947 114.20557612 127 121 C127.4434375 121.55300781 127.886875 122.10601562 128.34375 122.67578125 C136.04079544 133.57126111 137.54537861 148.89192483 135.375 161.68359375 C133.28387475 170.80426059 129.79782896 178.64259076 124 186 C123.01 186.33 122.02 186.66 121 187 C120.70867187 187.59941406 120.41734375 188.19882812 120.1171875 188.81640625 C115.96164049 196.93861176 104.13656134 201.183033 96 204 C93.03880543 204.89511395 90.40469169 205.13522212 87.3125 205.125 C86.52488281 205.12757813 85.73726563 205.13015625 84.92578125 205.1328125 C83 205 83 205 82 204 C81.90222686 201.86249999 81.87483646 199.7217661 81.87402344 197.58203125 C81.87122124 196.57403221 81.87122124 196.57403221 81.86836243 195.54566956 C81.86434469 194.07681666 81.86228234 192.60795746 81.86190033 191.13909912 C81.85846948 187.97824118 81.83705117 184.81758596 81.81666946 181.65679932 C81.77890229 175.77785157 81.74733991 169.89910244 81.74951172 164.02001953 C81.74787876 138.87502311 81.19581776 114.11008371 70 91 C69.60039062 90.16984375 69.20078125 89.3396875 68.7890625 88.484375 C64.20998152 79.69499809 57.98397 71.78859279 51.25 64.55859375 C50 63 50 63 50 61 C49.34 61 48.68 61 48 61 C46.64613064 59.34997172 45.31321858 57.6825613 44 56 C43.34 55.67 42.68 55.34 42 55 C42 54.34 42 53.68 42 53 C41.45214844 52.76023438 40.90429688 52.52046875 40.33984375 52.2734375 C37.4399206 50.69518217 35.09627992 48.74058323 32.5625 46.625 C26.22407501 41.35326406 20.2956076 36.82600111 13 33 C11.8965625 32.41605469 10.793125 31.83210938 9.65625 31.23046875 C3.78236312 28.17420946 -1.98275573 25.37045138 -8.42578125 23.703125 C-11 23 -11 23 -12.88134766 22.31518555 C-19.10247474 20.06405558 -25.19138829 19.0685449 -31.75 18.3125 C-33.35584961 18.12469971 -33.35584961 18.12469971 -34.99414062 17.93310547 C-42.38869683 17.10611234 -49.56200708 16.42094573 -57 17 C-57.83402344 17.06429199 -58.66804687 17.12858398 -59.52734375 17.19482422 C-82.50748715 19.12165723 -112.92838608 25.92838608 -130 43 C-130.99 43 -131.98 43 -133 43 C-133 43.66 -133 44.32 -133 45 C-134.43067595 46.24549452 -135.92250342 47.42106422 -137.4375 48.5625 C-145.79920071 55.11977164 -152.39634649 62.11098302 -158.37109375 70.91015625 C-158.90863281 71.59980469 -159.44617188 72.28945312 -160 73 C-160.66 73 -161.32 73 -162 73 C-162.20625 73.78375 -162.4125 74.5675 -162.625 75.375 C-163.808294 78.49459327 -165.06881832 80.87698994 -166.8125 83.6875 C-170.04569108 88.94535927 -172.58892857 94.3250666 -175 100 C-175.41121094 100.88171875 -175.82242188 101.7634375 -176.24609375 102.671875 C-189.23815307 132.62241673 -188.41170946 168.98200281 -177.14306641 199.24389648 C-171.48880006 213.50973251 -159.68102291 239.65948855 -145 247 C-145 247.66 -145 248.32 -145 249 C-144.41734375 249.26296875 -143.8346875 249.5259375 -143.234375 249.796875 C-140.89392833 251.05711551 -139.20540699 252.45619689 -137.25 254.25 C-130.61243803 260.16368738 -123.83813463 264.82847743 -116 269 C-114.46085937 269.87205078 -114.46085937 269.87205078 -112.890625 270.76171875 C-107.10786661 273.99924898 -101.66788119 276.72792445 -95.23828125 278.37890625 C-93 279 -93 279 -89.375 280.6875 C-82.95514305 283.1194621 -75.7100942 282.86428191 -69 282 C-66.26454944 280.74720962 -64.21225077 279.34469674 -61.87109375 277.47265625 C-57.83338485 274.29475175 -53.528405 273.79393967 -48.5625 274.125 C-41.18885658 275.22853847 -35.82456713 278.26081112 -31.25390625 284.1640625 C-26.71047748 290.81643484 -26.08880836 297.14489964 -27 305 C-29.15313221 312.98961007 -35.42105951 317.90665745 -42.3125 321.9375 C-49.27249367 323.9429219 -55.48339797 324.18872811 -62 320.75 C-64.36103077 319.34379785 -65.80516199 318.27826161 -67.38671875 316.01953125 C-72.99532478 308.99858859 -84.57337294 307.21876736 -92.9140625 305.64453125 C-96.63562833 304.86724218 -99.55612425 303.58948112 -103 302 C-104.61907908 301.50119281 -106.24479389 301.02364393 -107.875 300.5625 C-115.17221674 298.42861692 -121.60401672 295.42337801 -127.96875 291.28125 C-130.09939685 289.93730353 -132.27844244 288.74935952 -134.5 287.5625 C-138.34213216 285.46257604 -141.75454339 283.04145616 -145.203125 280.3515625 C-147.13890585 278.84086622 -147.13890585 278.84086622 -150 277.25 C-150.66 276.8375 -151.32 276.425 -152 276 C-152 275.34 -152 274.68 -152 274 C-152.53109375 273.7834375 -153.0621875 273.566875 -153.609375 273.34375 C-156.88669285 271.50159748 -159.50802551 269.03862231 -162.25 266.5 C-162.80429688 266.00113281 -163.35859375 265.50226563 -163.9296875 264.98828125 C-165.3285008 263.7031646 -166.66944254 262.35566232 -168 261 C-168 260.34 -168 259.68 -168 259 C-168.66 259 -169.32 259 -170 259 C-171.9453125 256.8828125 -171.9453125 256.8828125 -174.125 254.125 C-174.84945312 253.22007812 -175.57390625 252.31515625 -176.3203125 251.3828125 C-178 249 -178 249 -178 247 C-178.66 247 -179.32 247 -180 247 C-182 244 -182 244 -182 241 C-182.66 241 -183.32 241 -184 241 C-185.68666138 238.46697437 -187.23724174 235.94754626 -188.75 233.3125 C-189.19956055 232.53447021 -189.64912109 231.75644043 -190.11230469 230.95483398 C-212.107487 192.41575915 -215.76132484 149.13261062 -205.0625 106.515625 C-203.95835201 102.86219416 -202.51557649 99.50098169 -201 96 C-200.52111616 94.54929811 -200.05424212 93.09459221 -199.59765625 91.63671875 C-198.00698662 86.76574403 -195.8416323 82.32909886 -193.4375 77.8125 C-193.00058838 76.98878906 -192.56367676 76.16507812 -192.11352539 75.31640625 C-183.76923176 59.92167007 -172.69776864 44.95821491 -159 34 C-158.113125 33.0925 -157.22625 32.185 -156.3125 31.25 C-154 29 -154 29 -152 29 C-151.67 28.01 -151.34 27.02 -151 26 C-149.04592154 24.60023033 -147.03806093 23.2743961 -145 22 C-144.12601562 21.38640625 -143.25203125 20.7728125 -142.3515625 20.140625 C-134.83337366 14.92743962 -127.061023 10.78595811 -118.81005859 6.86669922 C-117.27559673 6.13196229 -115.75521797 5.36792539 -114.23828125 4.59765625 C-79.96914571 -12.24102416 -35.44566511 -13.28660672 0 0 Z " fill="#E9EAE9" transform="translate(230,89)"/>
<path d="M0 0 C4.22637924 3.342984 4.22637924 3.342984 9.44921875 3.80859375 C12.8702677 2.84559925 14.49036023 1.631662 17.11328125 -0.734375 C30.70609262 -12.17122686 46.07203 -15.24170017 63.36328125 -13.80859375 C72.53990015 -12.60050163 83.45916158 -9.36963706 90.48828125 -3.046875 C90.48828125 -2.386875 90.48828125 -1.726875 90.48828125 -1.046875 C91.04515625 -0.985 91.60203125 -0.923125 92.17578125 -0.859375 C99.29616904 1.64238287 104.38270605 10.96255866 107.71875 17.28515625 C108.72361137 19.48353112 109.62420976 21.69604107 110.48828125 23.953125 C110.76414062 24.60152344 111.04 25.24992187 111.32421875 25.91796875 C116.37876922 38.95470537 115.67081745 53.5796768 115.67578125 67.328125 C115.67727676 68.43352127 115.67727676 68.43352127 115.67880249 69.56124878 C115.67491859 94.97221452 115.67491859 94.97221452 111.48828125 100.953125 C107.86050515 104.15410392 104.38034741 104.47992504 99.70703125 104.30078125 C96.1379588 103.74154278 94.11114284 102.38406989 91.48828125 99.953125 C89.11800148 94.69673485 89.17722854 89.6348217 89.14453125 83.98046875 C89.12990845 83.02096817 89.11528564 82.06146759 89.10021973 81.07289124 C89.05389633 78.01217815 89.01964047 74.95152566 88.98828125 71.890625 C89.65637503 44.43413804 89.65637503 44.43413804 77.62109375 20.74609375 C70.46780241 14.73261257 61.62808087 12.58258209 52.50390625 12.66796875 C42.44122545 13.61949168 33.49331219 18.73521152 27.09765625 26.4609375 C21.39736015 35.28809506 20.99471346 45.74354982 20.90283203 55.93652344 C20.80680825 61.35053865 20.06372041 65.15315809 17.48828125 69.953125 C13.47646859 72.66699827 8.19335534 72.52547748 3.48828125 71.953125 C0.51619035 71.04205415 -0.40568407 70.1053044 -2.19921875 67.53125 C-4.00242114 62.61537682 -4.21728124 57.90262384 -4.51171875 52.703125 C-5.16623513 41.32346523 -6.56320907 29.40426767 -15.3671875 21.23046875 C-23.88075056 14.52830209 -32.73671592 12.06172419 -43.51171875 12.953125 C-52.7073495 14.91107868 -60.16032412 17.98357493 -65.51171875 25.953125 C-69.26670837 32.99877756 -71.61228853 39.264548 -71.66943359 47.29077148 C-71.68482681 48.85280556 -71.68482681 48.85280556 -71.70053101 50.44639587 C-71.70783234 51.56107742 -71.71513367 52.67575897 -71.72265625 53.82421875 C-71.75071698 56.19597054 -71.77938138 58.56771524 -71.80859375 60.93945312 C-71.84988862 64.67000183 -71.88678778 68.40041718 -71.91308594 72.13110352 C-71.94069681 75.73741732 -71.98655847 79.34313485 -72.03515625 82.94921875 C-72.03840912 84.06187607 -72.04166199 85.17453339 -72.04501343 86.32090759 C-72.13372302 91.91400716 -72.27627721 96.16417756 -75.51171875 100.953125 C-79.25583843 104.35687017 -83.19822909 104.54034666 -88.0703125 104.3515625 C-91.06471383 103.8628762 -93.2416229 102.84591699 -95.40924072 100.68478394 C-99.23323321 94.67845039 -98.810577 86.01813032 -98.77734375 79.1328125 C-98.7792572 78.23047882 -98.78117065 77.32814514 -98.78314209 76.39846802 C-98.78449344 74.50099405 -98.78087107 72.6035105 -98.77246094 70.70605469 C-98.76182242 67.85589933 -98.77235329 65.00638515 -98.78515625 62.15625 C-98.80370582 41.09698943 -97.86698097 20.99210947 -82.51171875 4.953125 C-81.54685547 3.91091797 -81.54685547 3.91091797 -80.5625 2.84765625 C-58.24678812 -19.12800669 -23.58850921 -19.18401579 0 0 Z " fill="#F2901D" transform="translate(169.51171875,187.046875)"/>
<path d="M0 0 C4.53629032 1.34408602 4.53629032 1.34408602 6.375 4 C7.86584832 8.47254497 7.86584832 12.52745503 6.375 17 C7.365 16.67 8.355 16.34 9.375 16 C11.3125 15.796875 11.3125 15.796875 13.375 15.75 C14.055625 15.72421875 14.73625 15.6984375 15.4375 15.671875 C18.03285735 16.11141133 18.7590942 16.94006264 20.375 19 C20.80737305 21.36010742 20.80737305 21.36010742 20.88671875 24.10546875 C20.92216797 25.08837891 20.95761719 26.07128906 20.99414062 27.08398438 C21.01669922 28.10814453 21.03925781 29.13230469 21.0625 30.1875 C21.09666016 31.22326172 21.13082031 32.25902344 21.16601562 33.32617188 C21.24852642 35.8840066 21.31766572 38.44149723 21.375 41 C23.32103274 41.59070014 23.32103274 41.59070014 25.375 42 C27.01416841 40.36083159 26.52261174 38.45252142 26.55078125 36.1953125 C26.58655273 34.73158203 26.58655273 34.73158203 26.62304688 33.23828125 C26.6658496 31.1707798 26.69719019 29.10300777 26.71679688 27.03515625 C26.74451172 26.05675781 26.77222656 25.07835937 26.80078125 24.0703125 C26.81536377 23.17070801 26.82994629 22.27110352 26.8449707 21.34423828 C27.375 19 27.375 19 29.18432617 17.19873047 C32.31430482 15.48601508 34.87009773 15.74037761 38.375 16 C39.035 16.33 39.695 16.66 40.375 17 C40.54515625 16.37351562 40.7153125 15.74703125 40.890625 15.1015625 C41.13296875 14.28429687 41.3753125 13.46703125 41.625 12.625 C41.85703125 11.81289063 42.0890625 11.00078125 42.328125 10.1640625 C43.375 8 43.375 8 45.29296875 6.703125 C48.33505328 5.67577938 50.32576621 6.09171759 53.375 7 C55.25 8.75 55.25 8.75 56.375 11 C56.41936297 12.66607614 56.42464683 14.33407294 56.375 16 C57.62796875 15.97679687 58.8809375 15.95359375 60.171875 15.9296875 C61.8229107 15.91092573 63.47395285 15.89272597 65.125 15.875 C65.95 15.85824219 66.775 15.84148437 67.625 15.82421875 C68.42421875 15.81777344 69.2234375 15.81132812 70.046875 15.8046875 C70.7800293 15.79421387 71.51318359 15.78374023 72.26855469 15.77294922 C74.67852646 16.03271669 76.25138412 16.86885863 78.375 18 C79.035 18 79.695 18 80.375 18 C78.62045615 14.81765895 78.62045615 14.81765895 76.375 12 C75.80107611 4.99812851 75.80107611 4.99812851 77.8125 1.5 C81.5069249 -0.66259019 85.18934414 -0.85563131 89.375 0 C91.39797818 1.50121458 92.21908357 2.49039394 92.95703125 4.90234375 C93.72484912 11.68256595 93.72484912 11.68256595 91.375 15 C90.715 15 90.055 15 89.375 15 C89.849375 15.515625 90.32375 16.03125 90.8125 16.5625 C92.80309407 19.66782675 93.02560818 22.36632504 93.375 26 C93.705 25.34 94.035 24.68 94.375 24 C95.035 24 95.695 24 96.375 24 C96.7153125 23.1028125 96.7153125 23.1028125 97.0625 22.1875 C99.42725125 18.24624791 102.79051823 17.21162271 107 15.6875 C113.5399866 14.21352575 119.97634925 15.73525688 125.8125 18.8125 C128.42352671 21.04142524 130.46998186 23.14247279 132.375 26 C132.375 26.99 132.375 27.98 132.375 29 C133.035 29 133.695 29 134.375 29 C134.436875 28.29875 134.49875 27.5975 134.5625 26.875 C135.63753095 23.07104434 137.36884883 20.49796847 140.375 18 C146.28851343 14.82549764 151.91604579 14.43715286 158.375 16 C163.80851513 17.88083216 166.6972081 21.03915046 169.375 26 C170.48300597 29.49136778 170.57535294 32.86823523 170.69140625 36.515625 C170.75424805 38.39121094 170.75424805 38.39121094 170.81835938 40.3046875 C170.85767578 41.60664063 170.89699219 42.90859375 170.9375 44.25 C170.98068359 45.56742187 171.02386719 46.88484375 171.06835938 48.2421875 C171.17441917 51.49468788 171.27648024 54.74726392 171.375 58 C171.92929687 58.18175781 172.48359375 58.36351562 173.0546875 58.55078125 C174.14136719 58.92783203 174.14136719 58.92783203 175.25 59.3125 C175.96929687 59.55613281 176.68859375 59.79976563 177.4296875 60.05078125 C179.375 61 179.375 61 181.375 64 C181.92454205 69.27560366 181.92454205 69.27560366 180 71.8125 C176.32741075 74.49631522 172.77708258 74.53382021 168.375 74 C162.52097452 72.31361101 159.36775848 69.35736505 156.28515625 64.1953125 C154.37554486 59.58929704 154.22950044 54.65844139 154.05859375 49.7265625 C153.99575195 47.99599609 153.99575195 47.99599609 153.93164062 46.23046875 C153.89232422 45.04066406 153.85300781 43.85085938 153.8125 42.625 C153.76931641 41.41199219 153.72613281 40.19898438 153.68164062 38.94921875 C153.57594487 35.96624968 153.47384679 32.98320258 153.375 30 C151.37516466 30.79117904 151.37516466 30.79117904 149.375 32 C148.43506725 34.81979825 148.2400021 36.63783504 148.19921875 39.5625 C148.17537109 40.44164062 148.15152344 41.32078125 148.12695312 42.2265625 C148.08398984 44.07528575 148.05273607 45.92431827 148.03320312 47.7734375 C147.99163086 49.09214844 147.99163086 49.09214844 147.94921875 50.4375 C147.93463623 51.24058594 147.92005371 52.04367187 147.9050293 52.87109375 C147.375 55 147.375 55 145.52661133 56.7578125 C142.57631138 58.46110606 140.72849171 58.48905088 137.375 58 C133.95879277 55.69175187 133.44133334 54.3316667 132.625 50.25 C132.5425 49.1775 132.46 48.105 132.375 47 C131.92125 47.886875 131.4675 48.77375 131 49.6875 C127.90457071 54.2440585 123.52206778 56.34306722 118.375 58 C111.81157701 58.97017178 105.87547315 58.66050425 100.06640625 55.2890625 C97.30903149 53.18759906 95.41096633 50.79945371 93.375 48 C93.00375 49.6396875 93.00375 49.6396875 92.625 51.3125 C91.375 55 91.375 55 89.625 56.9375 C86.60933139 58.36156573 84.67333831 58.48100767 81.375 58 C78.24342368 55.79943285 77.49001777 54.49841035 76.625 50.75 C76.5425 49.8425 76.46 48.935 76.375 48 C75.6015625 49.36125 75.6015625 49.36125 74.8125 50.75 C72.35469257 54.35137062 69.52400222 56.61955564 65.375 58 C59.32086647 59.06245006 54.66799131 58.64726134 49.4375 55.3125 C46.22826495 52.89119542 43.64223314 50.35156203 41.375 47 C40.694375 48.0725 40.01375 49.145 39.3125 50.25 C35.92291787 54.90477434 32.46899057 57.46089558 26.796875 58.44921875 C19.29734019 58.92055823 15.1268862 56.56358444 9.375 52 C8.385 51.505 8.385 51.505 7.375 51 C6.92125 51.78375 6.4675 52.5675 6 53.375 C4.375 56 4.375 56 2.375 58 C-0.4375 58.4375 -0.4375 58.4375 -3.625 58 C-6.73067268 55.58447681 -8.3390129 53.98995534 -9.4375 50.1875 C-9.499375 49.465625 -9.56125 48.74375 -9.625 48 C-10.285 48.9075 -10.945 49.815 -11.625 50.75 C-15.50030713 55.30537496 -19.57084595 57.59716407 -25.52734375 58.3828125 C-32.05113244 58.62961409 -37.33035934 57.99247845 -42.625 54 C-48.04570897 48.93974738 -50.13801734 43.30473992 -50.625 36 C-50.02580046 29.74169373 -48.17762472 24.44863075 -43.625 20 C-37.74155539 15.7736828 -31.20565067 14.39580375 -24.078125 15.3359375 C-17.12514575 16.95829933 -13.79444148 20.39847291 -9.625 26 C-9.62089111 25.39003174 -9.61678223 24.78006348 -9.61254883 24.15161133 C-9.57952425 21.37094208 -9.50887432 18.59243843 -9.4375 15.8125 C-9.43169922 14.85279297 -9.42589844 13.89308594 -9.41992188 12.90429688 C-9.27294917 8.18484003 -9.15087214 5.71854463 -6.30078125 1.82421875 C-3.625 0 -3.625 0 0 0 Z M-32.875 31.0625 C-34.98648676 33.00884247 -34.98648676 33.00884247 -34.9375 36.5625 C-34.84853201 39.85660211 -34.84853201 39.85660211 -33.625 42 C-30.02452525 42.88313532 -27.64221663 43.44340212 -24.1875 41.9375 C-22.38285234 40.02237851 -22.38285234 40.02237851 -22.125 37.0625 C-22.73024881 33.35535102 -23.60388 32.18192 -26.625 30 C-30.43687651 29.71532913 -30.43687651 29.71532913 -32.875 31.0625 Z M76.375 28 C76.045 28.33 75.715 28.66 75.375 29 C73.96172053 29.15620555 72.5414541 29.25056173 71.12109375 29.31640625 C70.26708984 29.35830078 69.41308594 29.40019531 68.53320312 29.44335938 C67.63537109 29.48267578 66.73753906 29.52199219 65.8125 29.5625 C64.91080078 29.60568359 64.00910156 29.64886719 63.08007812 29.69335938 C60.84524844 29.79977984 58.61014514 29.90042481 56.375 30 C56.375 33.96 56.375 37.92 56.375 42 C58.85 42.495 58.85 42.495 61.375 43 C61.61734375 42.37351562 61.8596875 41.74703125 62.109375 41.1015625 C62.61210937 39.87566406 62.61210937 39.87566406 63.125 38.625 C63.61226563 37.40683594 63.61226563 37.40683594 64.109375 36.1640625 C65.59090823 33.63082359 66.62625938 32.9410582 69.375 32 C72.22918219 32.348071 74.64379341 33.0895978 77.375 34 C77.375 32.02 77.375 30.04 77.375 28 C77.045 28 76.715 28 76.375 28 Z M108 31.5625 C106.03140194 34.01459258 106.03140194 34.01459258 106.4375 37.625 C107.0500845 41.25516924 107.0500845 41.25516924 110.375 43 C113.95256686 43.00082535 113.95256686 43.00082535 117.375 42 C119.15635346 39.84753124 119.44652396 38.7629222 119.1875 36 C118.1893461 33.54300578 117.25998001 31.88498001 115.375 30 C112.08058401 29.32422236 110.81112099 29.7130783 108 31.5625 Z " fill="#EE8F1E" transform="translate(306.625,312)"/>
<path d="M0 0 C1.875 1.6875 1.875 1.6875 3 4 C3 5.98 3 7.96 3 10 C7.95 10 12.9 10 18 10 C18 10.99 18 11.98 18 13 C17.34 13 16.68 13 16 13 C16.495 13.99 16.495 13.99 17 15 C16.505 15.495 16.505 15.495 16 16 C16.495 16.99 16.495 16.99 17 18 C17.99 18 18.98 18 20 18 C20.5625 19.9375 20.5625 19.9375 21 22 C20 23 20 23 18.23413086 23.11352539 C17.48526611 23.10828857 16.73640137 23.10305176 15.96484375 23.09765625 C15.15595703 23.09443359 14.34707031 23.09121094 13.51367188 23.08789062 C12.66353516 23.07951172 11.81339844 23.07113281 10.9375 23.0625 C10.08349609 23.05798828 9.22949219 23.05347656 8.34960938 23.04882812 C6.23304337 23.03700373 4.11651315 23.01906769 2 23 C2 27.62 2 32.24 2 37 C5.3 37 8.6 37 12 37 C12 36.34 12 35.68 12 35 C13.98 34.505 13.98 34.505 16 34 C15.67 33.01 15.34 32.02 15 31 C14.505 29.515 14.505 29.515 14 28 C16.875 27.375 16.875 27.375 20 27 C20.66 27.66 21.32 28.32 22 29 C21.67582137 32.80909895 21.14418558 34.78372163 19 38 C19 38.66 19 39.32 19 40 C18.01 40 17.02 40 16 40 C16 40.66 16 41.32 16 42 C16.99 42 17.98 42 19 42 C19 42.99 19 43.98 19 45 C17.02 45.495 17.02 45.495 15 46 C15 46.66 15 47.32 15 48 C12.27056463 48.05416741 9.54221436 48.09375225 6.8125 48.125 C5.65911133 48.15013672 5.65911133 48.15013672 4.48242188 48.17578125 C0.23832769 48.21221124 -3.20853259 48.1503845 -7 46 C-9.3125 42.875 -9.3125 42.875 -11 40 C-11.5775 40.763125 -12.155 41.52625 -12.75 42.3125 C-15.74358177 45.88816711 -17.51090607 47.67239934 -22.125 48.6875 C-26.76356866 49.06157812 -31.34975286 49.08420971 -36 49 C-36 48.01 -36 47.02 -36 46 C-36.99 45.67 -37.98 45.34 -39 45 C-35.125 39.125 -35.125 39.125 -34 38 C-32.48530552 37.76807135 -30.96245438 37.58784762 -29.4375 37.4375 C-28.61121094 37.35371094 -27.78492188 37.26992188 -26.93359375 37.18359375 C-26.29550781 37.12300781 -25.65742188 37.06242187 -25 37 C-25.01571045 36.22285645 -25.0314209 35.44571289 -25.04760742 34.64501953 C-25.10980351 31.1384198 -25.14894207 27.63193587 -25.1875 24.125 C-25.21263672 22.90167969 -25.23777344 21.67835938 -25.26367188 20.41796875 C-25.27817383 18.66806641 -25.27817383 18.66806641 -25.29296875 16.8828125 C-25.31653442 15.26463623 -25.31653442 15.26463623 -25.34057617 13.61376953 C-25.22818604 12.75122559 -25.1157959 11.88868164 -25 11 C-21.33134759 8.55423173 -19.32799657 8.76392746 -15 9 C-14.34 9.33 -13.68 9.66 -13 10 C-12.82984375 9.37351562 -12.6596875 8.74703125 -12.484375 8.1015625 C-12.24203125 7.28429687 -11.9996875 6.46703125 -11.75 5.625 C-11.51796875 4.81289063 -11.2859375 4.00078125 -11.046875 3.1640625 C-10 1 -10 1 -8.08203125 -0.296875 C-5.03994672 -1.32422062 -3.04923379 -0.90828241 0 0 Z " fill="#F5921C" transform="translate(360,319)"/>
<path d="M0 0 C2.71604883 1.92982417 3.74692606 3.34200775 4.9375 6.4375 C5.02226383 9.9128169 4.22474434 11.34465998 2 14 C0.02070162 14.72582531 -1.97914698 15.39950229 -4 16 C-4.0093457 16.90766113 -4.01869141 17.81532227 -4.02832031 18.75048828 C-4.07250484 22.13926814 -4.13419111 25.52681226 -4.20751953 28.91503906 C-4.2356311 30.37748705 -4.25689431 31.8400842 -4.27099609 33.30273438 C-4.29256419 35.41353169 -4.33927656 37.52255429 -4.390625 39.6328125 C-4.4220459 41.53377686 -4.4220459 41.53377686 -4.45410156 43.47314453 C-5.26761044 48.72893578 -7.67462198 51.80392715 -11.5625 55.3125 C-15.74362756 58.20712678 -20.01886498 58.7331106 -25 58 C-27.47989431 56.21956306 -28.58711888 54.82576225 -29.9375 52.125 C-30.03789099 48.71170625 -28.88543001 46.79773485 -27 44 C-23.87890625 42.8203125 -23.87890625 42.8203125 -21 42 C-20.98541748 41.19369141 -20.97083496 40.38738281 -20.95581055 39.55664062 C-20.88091538 35.87063378 -20.7843904 32.18549163 -20.6875 28.5 C-20.66494141 27.2315625 -20.64238281 25.963125 -20.61914062 24.65625 C-20.18229901 9.40650644 -20.18229901 9.40650644 -15.28125 4.16015625 C-14.6934375 3.79792969 -14.105625 3.43570312 -13.5 3.0625 C-12.9121875 2.68222656 -12.324375 2.30195313 -11.71875 1.91015625 C-7.7698654 -0.18095764 -4.40194881 -0.38613586 0 0 Z " fill="#F3921F" transform="translate(253,312)"/>
<path d="M0 0 C0.66 3.3 1.32 6.6 2 10 C1.01 10 0.02 10 -1 10 C-1.01458252 10.68626465 -1.02916504 11.3725293 -1.04418945 12.07958984 C-1.11850151 15.17863901 -1.21521582 18.27659055 -1.3125 21.375 C-1.33505859 22.45523437 -1.35761719 23.53546875 -1.38085938 24.6484375 C-1.41630859 25.6796875 -1.45175781 26.7109375 -1.48828125 27.7734375 C-1.51446533 28.72653809 -1.54064941 29.67963867 -1.56762695 30.66162109 C-1.71031006 31.43328613 -1.85299316 32.20495117 -2 33 C-2.99 33.66 -3.98 34.32 -5 35 C-5.33 34.01 -5.66 33.02 -6 32 C-6.763125 32.226875 -7.52625 32.45375 -8.3125 32.6875 C-11 33 -11 33 -12.65625 31.8125 C-14.37897603 29.48882303 -14.31179709 28.171333 -14.1875 25.3125 C-14.14689453 24.10013672 -14.14689453 24.10013672 -14.10546875 22.86328125 C-14.07066406 22.24839844 -14.03585937 21.63351562 -14 21 C-14.66 21 -15.32 21 -16 21 C-16 21.66 -16 22.32 -16 23 C-16.66 23 -17.32 23 -18 23 C-18.33 24.98 -18.66 26.96 -19 29 C-19.99 29.33 -20.98 29.66 -22 30 C-22 29.34 -22 28.68 -22 28 C-24.74084921 30.36709704 -25.7367158 32.64405806 -27 36 C-29.75059381 36.08107646 -32.49879021 36.14052813 -35.25 36.1875 C-36.41595703 36.22520508 -36.41595703 36.22520508 -37.60546875 36.26367188 C-41.14620771 36.30906596 -43.3904659 36.33187823 -46.546875 34.61328125 C-48 33 -48 33 -48 31 C-46.02 30.67 -44.04 30.34 -42 30 C-41.67 29.01 -41.34 28.02 -41 27 C-41.66 27 -42.32 27 -43 27 C-43 27.66 -43 28.32 -43 29 C-43.99 29 -44.98 29 -46 29 C-45.979375 27.948125 -45.95875 26.89625 -45.9375 25.8125 C-45.98896802 22.67295096 -46.26517187 20.03116604 -47 17 C-43.125 20.75 -43.125 20.75 -42 23 C-40.02154646 23.72911969 -40.02154646 23.72911969 -37.6875 24.1875 C-36.90761719 24.36667969 -36.12773437 24.54585938 -35.32421875 24.73046875 C-32.90795241 25.01067443 -31.29757048 24.74132137 -29 24 C-28.83197949 22.54182203 -28.66562857 21.0834516 -28.5 19.625 C-28.36078125 18.40683594 -28.36078125 18.40683594 -28.21875 17.1640625 C-27.96647649 15.03087175 -27.96647649 15.03087175 -28 13 C-27.505 12.525625 -27.01 12.05125 -26.5 11.5625 C-24.65373409 10.00030058 -24.65373409 10.00030058 -25 7 C-23.68 6.34 -22.36 5.68 -21 5 C-21 5.99 -21 6.98 -21 8 C-20.360625 8.226875 -19.72125 8.45375 -19.0625 8.6875 C-17 10 -17 10 -16.25 12.625 C-16.12625 13.800625 -16.12625 13.800625 -16 15 C-15.34 14.67 -14.68 14.34 -14 14 C-13.53476937 12.10466658 -13.53476937 12.10466658 -13.375 9.9375 C-13.189375 7.9884375 -13.189375 7.9884375 -13 6 C-12.34 6 -11.68 6 -11 6 C-10.67 5.34 -10.34 4.68 -10 4 C-9.01 4.33 -8.02 4.66 -7 5 C-7 3.68 -7 2.36 -7 1 C-2.25 0 -2.25 0 0 0 Z " fill="#F7921D" transform="translate(455,331)"/>
<path d="M0 0 C2.02297818 1.50121458 2.84408357 2.49039394 3.58203125 4.90234375 C4.34984912 11.68256595 4.34984912 11.68256595 2 15 C1.34 15 0.68 15 0 15 C-0.20086443 18.71599191 -0.1519437 19.77208445 2 23 C2.24291992 24.92602539 2.24291992 24.92602539 2.23046875 27.09765625 C2.22889771 28.29370483 2.22889771 28.29370483 2.22729492 29.51391602 C2.20759644 30.77546509 2.20759644 30.77546509 2.1875 32.0625 C2.17887939 32.91706787 2.17025879 33.77163574 2.16137695 34.65209961 C1.9963852 46.29343019 1.9963852 46.29343019 1 52 C0.01 52.66 -0.98 53.32 -2 54 C-1.67 54.66 -1.34 55.32 -1 56 C-8.75 55.25 -8.75 55.25 -11 53 C-11.34278399 50.52897451 -11.56339747 48.17099038 -11.6875 45.6875 C-11.7280249 44.97779053 -11.7685498 44.26808105 -11.81030273 43.53686523 C-12.12208971 36.97026463 -11.6973858 30.53396852 -11 24 C-10.9254644 22.7763932 -10.9254644 22.7763932 -12 21 C-11.34 21 -10.68 21 -10 21 C-9.74951364 18.12549017 -9.74951364 18.12549017 -10 15 C-10.495 14.54625 -10.99 14.0925 -11.5 13.625 C-13 12 -13 12 -13.4375 8.0625 C-13.30118462 5.21560582 -13.0195105 4.0339313 -11.5625 1.5 C-7.8680751 -0.66259019 -4.18565586 -0.85563131 0 0 Z " fill="#F5921E" transform="translate(396,312)"/>
<path d="M0 0 C4.59983633 1.06781915 4.59983633 1.06781915 6.5 3.8125 C7.99084832 8.28504497 7.99084832 12.33995503 6.5 16.8125 C7.49 16.4825 8.48 16.1525 9.5 15.8125 C11.4375 15.609375 11.4375 15.609375 13.5 15.5625 C14.180625 15.53671875 14.86125 15.5109375 15.5625 15.484375 C18.15785735 15.92391133 18.8840942 16.75256264 20.5 18.8125 C20.93237305 21.17260742 20.93237305 21.17260742 21.01171875 23.91796875 C21.06489258 25.39233398 21.06489258 25.39233398 21.11914062 26.89648438 C21.14169922 27.92064453 21.16425781 28.94480469 21.1875 30 C21.23874023 31.55364258 21.23874023 31.55364258 21.29101562 33.13867188 C21.37352642 35.6965066 21.44266572 38.25399723 21.5 40.8125 C23.44603274 41.40320014 23.44603274 41.40320014 25.5 41.8125 C27.15079442 40.16170558 26.72549447 38.17513821 26.81640625 35.90234375 C26.87924805 34.41831055 26.87924805 34.41831055 26.94335938 32.90429688 C26.98267578 31.86337891 27.02199219 30.82246094 27.0625 29.75 C27.12727539 28.18282227 27.12727539 28.18282227 27.19335938 26.58398438 C27.29981225 23.99363116 27.4018276 21.40317814 27.5 18.8125 C27.83 18.8125 28.16 18.8125 28.5 18.8125 C28.5 27.0625 28.5 35.3125 28.5 43.8125 C25.53 44.4725 22.56 45.1325 19.5 45.8125 C16.89902798 48.74931853 16.89902798 48.74931853 15.5 51.8125 C16.16 52.1425 16.82 52.4725 17.5 52.8125 C17.5 53.8025 17.5 54.7925 17.5 55.8125 C25.42 55.3175 25.42 55.3175 33.5 54.8125 C28.86565148 58.28826139 26.95336541 58.43164054 21.3984375 58.3125 C16.55311486 57.47664919 13.27526764 54.80782223 9.5 51.8125 C8.84 51.4825 8.18 51.1525 7.5 50.8125 C7.04625 51.59625 6.5925 52.38 6.125 53.1875 C4.5 55.8125 4.5 55.8125 2.5 57.8125 C-0.625 57.9375 -0.625 57.9375 -3.5 57.8125 C-3.83 57.1525 -4.16 56.4925 -4.5 55.8125 C-2.19 55.8125 0.12 55.8125 2.5 55.8125 C2.5 54.8225 2.5 53.8325 2.5 52.8125 C3.16 52.8125 3.82 52.8125 4.5 52.8125 C4.48839844 52.20921875 4.47679687 51.6059375 4.46484375 50.984375 C4.45582031 50.18515625 4.44679688 49.3859375 4.4375 48.5625 C4.42589844 47.77359375 4.41429687 46.9846875 4.40234375 46.171875 C4.49677732 43.89035991 4.94878369 42.01736525 5.5 39.8125 C5.56548492 38.23038427 5.58578381 36.64579919 5.5625 35.0625 C5.55347656 34.26328125 5.54445313 33.4640625 5.53515625 32.640625 C5.52355469 32.03734375 5.51195312 31.4340625 5.5 30.8125 C6.16 30.4825 6.82 30.1525 7.5 29.8125 C7.5 28.8225 7.5 27.8325 7.5 26.8125 C6.84 27.1425 6.18 27.4725 5.5 27.8125 C5.48018066 27.19729492 5.46036133 26.58208984 5.43994141 25.94824219 C5.34450273 23.15257458 5.23490045 20.3576349 5.125 17.5625 C5.0940625 16.59441406 5.063125 15.62632812 5.03125 14.62890625 C4.99257813 13.69433594 4.95390625 12.75976562 4.9140625 11.796875 C4.8826416 10.93803711 4.8512207 10.07919922 4.81884766 9.19433594 C4.48283796 6.6842972 3.75808272 4.99317672 2.5 2.8125 C0.85 2.8125 -0.8 2.8125 -2.5 2.8125 C-2.83 3.4725 -3.16 4.1325 -3.5 4.8125 C-5.5 3.8125 -5.5 3.8125 -6.5 1.8125 C-3.5 -0.1875 -3.5 -0.1875 0 0 Z " fill="#E78B1E" transform="translate(306.5,312.1875)"/>
<path d="M0 0 C2.89608593 -0.05413245 5.79115195 -0.09373641 8.6875 -0.125 C9.50412109 -0.14175781 10.32074219 -0.15851563 11.16210938 -0.17578125 C15.57092929 -0.2114802 18.98731576 -0.07580814 23 2 C22.67 3.32 22.34 4.64 22 6 C22.99 6.33 23.98 6.66 25 7 C24.34 7.66 23.68 8.32 23 9 C22.65990848 11.69707366 22.43688395 14.29190103 22.3125 17 C22.2727002 17.76586426 22.23290039 18.53172852 22.19189453 19.32080078 C21.89629104 26.01784646 21.86223989 32.58671968 24 39 C26.31 39 28.62 39 31 39 C31 38.01 31 37.02 31 36 C31.99 36 32.98 36 34 36 C34.04954711 31.94323508 34.085789 27.88658806 34.10986328 23.82958984 C34.11990253 22.45032685 34.13353677 21.07108504 34.15087891 19.69189453 C34.17521754 17.7061486 34.18543255 15.7202455 34.1953125 13.734375 C34.20578613 12.54038086 34.21625977 11.34638672 34.22705078 10.11621094 C34.01034762 7.14201836 33.56186122 5.49681621 32 3 C32.66 2.34 33.32 1.68 34 1 C36.77744395 3.77744395 36.53698444 6.16358534 37 10 C37.17660156 10.63550781 37.35320312 11.27101563 37.53515625 11.92578125 C38.07030998 14.31373614 37.99033874 16.37116331 37.875 18.8125 C37.81745136 23.67536001 38.65024138 26.75235941 41 31 C41.66 31.33 42.32 31.66 43 32 C43.625 35.0625 43.625 35.0625 44 38 C43.34 38 42.68 38 42 38 C40.2856382 36.04072937 38.61594832 34.04119788 37 32 C36.7525 33.093125 36.505 34.18625 36.25 35.3125 C35 39 35 39 33.25 40.9375 C30.23433139 42.36156573 28.29833831 42.48100767 25 42 C21.86842368 39.79943285 21.11501777 38.49841035 20.25 34.75 C20.1675 33.8425 20.085 32.935 20 32 C19.2265625 33.36125 19.2265625 33.36125 18.4375 34.75 C15.98583752 38.34236656 13.15400647 40.65090065 9 42 C3.86492602 42.65569811 -0.4632451 42.72317878 -5.1875 40.5 C-5.785625 40.005 -6.38375 39.51 -7 39 C-3.6717269 37.33586345 -0.00266027 38.18132594 3.625 38.4375 C4.42679687 38.48970703 5.22859375 38.54191406 6.0546875 38.59570312 C8.03679103 38.72548371 10.01844499 38.86209735 12 39 C11.67 38.01 11.34 37.02 11 36 C12.65 36 14.3 36 16 36 C16 35.01 16 34.02 16 33 C15.01 33 14.02 33 13 33 C13 32.34 13 31.68 13 31 C13.99 31 14.98 31 16 31 C15.67 30.01 15.34 29.02 15 28 C15.495 27.38125 15.99 26.7625 16.5 26.125 C18.31496211 24.05388789 18.31496211 24.05388789 17.6875 21.25 C17.460625 20.5075 17.23375 19.765 17 19 C15.02 19 13.04 19 11 19 C11.83333333 21.16666667 11.83333333 21.16666667 14 22 C13.67 22.99 13.34 23.98 13 25 C10.9375 25.6875 10.9375 25.6875 9 26 C9 26.66 9 27.32 9 28 C6.26094655 29.36952673 4.02912668 29.12621361 1 29 C0.34 28.67 -0.32 28.34 -1 28 C-1 23.38 -1 18.76 -1 14 C-0.67 14 -0.34 14 0 14 C0 17.96 0 21.92 0 26 C1.65 26 3.3 26 5 26 C5.24234375 25.37351562 5.4846875 24.74703125 5.734375 24.1015625 C6.06953125 23.28429687 6.4046875 22.46703125 6.75 21.625 C7.07484375 20.81289063 7.3996875 20.00078125 7.734375 19.1640625 C9.21659307 16.62965259 10.24918109 15.93995163 13 15 C15.65491264 15.31606103 17.61205246 15.80602623 20 17 C20 15.68 20 14.36 20 13 C19.01 13 18.02 13 17 13 C17 11.68 17 10.36 17 9 C14.525 8.505 14.525 8.505 12 8 C12 4 12 4 13 2 C13.66 2 14.32 2 15 2 C10.05 1.67 5.1 1.34 0 1 C0 0.67 0 0.34 0 0 Z " fill="#DB8726" transform="translate(363,328)"/>
<path d="M0 0 C4 4.31578947 4 4.31578947 4 8 C4.66 8 5.32 8 6 8 C6.33 6.68 6.66 5.36 7 4 C7 6.64 7 9.28 7 12 C6.01 12.33 5.02 12.66 4 13 C3.566875 12.071875 3.13375 11.14375 2.6875 10.1875 C1.27961373 7.52815927 0.23876444 5.91894095 -2 4 C-2.99 4.33 -3.98 4.66 -5 5 C-4.67 6.32 -4.34 7.64 -4 9 C-5.98 9.99 -5.98 9.99 -8 11 C-7.79375 12.03125 -7.5875 13.0625 -7.375 14.125 C-6.98805597 18.1234216 -7.48116924 20.33693757 -9 24 C-11.64 23.67 -14.28 23.34 -17 23 C-13.25 21 -13.25 21 -11 21 C-9.89595555 16.18581859 -9.89595555 16.18581859 -11.125 11.5625 C-12.92426218 9.79932433 -12.92426218 9.79932433 -15.5 9.5625 C-17.98579109 9.85337294 -17.98579109 9.85337294 -19.875 11.0625 C-21.68060316 14.17214989 -20.79952488 16.61739473 -20 20 C-19.34 20.66 -18.68 21.32 -18 22 C-19.65 21.67 -21.3 21.34 -23 21 C-23 17.7 -23 14.4 -23 11 C-22.34 11 -21.68 11 -21 11 C-21 10.01 -21 9.02 -21 8 C-20.05125 7.855625 -19.1025 7.71125 -18.125 7.5625 C-15.1065506 7.17064601 -15.1065506 7.17064601 -13 6 C-13.66 5.21625 -14.32 4.4325 -15 3.625 C-17 1 -17 1 -17 -1 C-20.66305234 -1.74926071 -23.42355152 -2.2380014 -27 -1 C-27 -0.34 -27 0.32 -27 1 C-28.32 0.67 -29.64 0.34 -31 0 C-23.30678424 -8.90793403 -8.25145485 -7.04392487 0 0 Z " fill="#F5921E" transform="translate(435,333)"/>
<path d="M0 0 C1.65 0 3.3 0 5 0 C6.32 3.3 7.64 6.6 9 10 C11.09782787 7.90217213 11.6509396 6.6200793 12.625 3.875 C12.88539063 3.15054687 13.14578125 2.42609375 13.4140625 1.6796875 C13.70410156 0.84824219 13.70410156 0.84824219 14 0 C15.65 0 17.3 0 19 0 C19 6.93 19 13.86 19 21 C17.35 20.67 15.7 20.34 14 20 C13.67 19.01 13.34 18.02 13 17 C12.34 18.32 11.68 19.64 11 21 C9.125 20.8125 9.125 20.8125 7 20 C5.75 17.4375 5.75 17.4375 5 15 C4.34 16.98 3.68 18.96 3 21 C2.01 21 1.02 21 0 21 C0 14.07 0 7.14 0 0 Z " fill="#D3D3D3" transform="translate(288,375)"/>
<path d="M0 0 C1.32 0 2.64 0 4 0 C4.99 3.3 5.98 6.6 7 10 C7.99 6.7 8.98 3.4 10 0 C11.65 0 13.3 0 15 0 C15.66 3.3 16.32 6.6 17 10 C17.66 10 18.32 10 19 10 C19.66 6.7 20.32 3.4 21 0 C22.32 0 23.64 0 25 0 C23.66666667 6.66666667 22.33333333 13.33333333 21 20 C19.35 20.33 17.7 20.66 16 21 C15.79503906 20.28972656 15.59007812 19.57945312 15.37890625 18.84765625 C15.10949219 17.92855469 14.84007812 17.00945312 14.5625 16.0625 C14.29566406 15.14597656 14.02882812 14.22945313 13.75390625 13.28515625 C13.20973949 11.0597507 13.20973949 11.0597507 12 10 C11.01 13.63 10.02 17.26 9 21 C7.35 20.67 5.7 20.34 4 20 C3.32749476 17.41806023 2.66182099 14.83467929 2 12.25 C1.71382812 11.15558594 1.71382812 11.15558594 1.421875 10.0390625 C0.53484036 6.55428354 0 3.61876278 0 0 Z " fill="#D3D2D0" transform="translate(220,375)"/>
<path d="M0 0 C0.33 1.32 0.66 2.64 1 4 C5.12973628 3.43260132 5.12973628 3.43260132 9 2 C10.875 2.453125 10.875 2.453125 13 3.25 C13.70125 3.50265625 14.4025 3.7553125 15.125 4.015625 C17 5 17 5 19 8 C19.54954205 13.27560366 19.54954205 13.27560366 17.625 15.8125 C13.95331865 18.49565176 10.39763906 18.33961965 6 18 C3.5625 17.25 3.5625 17.25 2 16 C1.63837971 14.67405895 1.30271961 13.34061543 1 12 C0.01 11.67 -0.98 11.34 -2 11 C-1.67 9.35 -1.34 7.7 -1 6 C-1.66 6 -2.32 6 -3 6 C-3 4.68 -3 3.36 -3 2 C-2.01 2 -1.02 2 0 2 C0 1.34 0 0.68 0 0 Z " fill="#F1901D" transform="translate(469,368)"/>
<path d="M0 0 C0.99 0.66 1.98 1.32 3 2 C5.15274948 1.69159401 5.15274948 1.69159401 7 1 C8.25664978 3.90600261 9 5.79604584 9 9 C9.99 9.33 10.98 9.66 12 10 C12.11138159 15.45769811 11.91657981 20.61509359 11 26 C8 24 8 24 7.3125 21.375 C7.209375 20.59125 7.10625 19.8075 7 19 C6.34 19.9075 5.68 20.815 5 21.75 C1.87188399 25.42706116 -1.32922294 27.67851186 -6 29 C-10.02606407 29.30627727 -13.97203389 29.24167797 -18 29 C-18 28.34 -18 27.68 -18 27 C-18.66 26.67 -19.32 26.34 -20 26 C-14.06 26 -8.12 26 -2 26 C-2 25.01 -2 24.02 -2 23 C-1.01 23 -0.02 23 1 23 C0.66226562 22.36707031 0.32453125 21.73414063 -0.0234375 21.08203125 C-1.36986975 16.83269105 -0.97236135 13.08856829 -0.625 8.6875 C-0.56828125 7.85154297 -0.5115625 7.01558594 -0.453125 6.15429688 C-0.31240504 4.10213072 -0.1576007 2.05093882 0 0 Z " fill="#F7921D" transform="translate(290,341)"/>
<path d="M0 0 C2.02297818 1.50121458 2.84408357 2.49039394 3.58203125 4.90234375 C4.34984912 11.68256595 4.34984912 11.68256595 2 15 C1.34 15 0.68 15 0 15 C0 15.66 0 16.32 0 17 C-0.928125 16.979375 -1.85625 16.95875 -2.8125 16.9375 C-6.02286011 16.84230396 -6.02286011 16.84230396 -9 18 C-9.474375 17.195625 -9.94875 16.39125 -10.4375 15.5625 C-11.76900154 13.15246512 -11.76900154 13.15246512 -13 12 C-13.57392389 4.99812851 -13.57392389 4.99812851 -11.5625 1.5 C-7.8680751 -0.66259019 -4.18565586 -0.85563131 0 0 Z " fill="#D07F25" transform="translate(396,312)"/>
<path d="M0 0 C2.5625 1.75 2.5625 1.75 4 4 C3.75 6.125 3.75 6.125 3 8 C2.84773177 10.13674088 2.84773177 10.13674088 4.1875 12.3125 C5 15 5 15 3.75 17.75 C2 20 2 20 0 21 C-3.57548453 21.26485071 -6.13290343 21.43354828 -9.375 19.8125 C-11.36774166 17.58982661 -11.68306247 15.93167219 -12 13 C-10.68 12.67 -9.36 12.34 -8 12 C-7.01 13.485 -7.01 13.485 -6 15 C-2.93443402 15.73343428 -2.93443402 15.73343428 0 16 C0 15.01 0 14.02 0 13 C-0.62648438 12.87882812 -1.25296875 12.75765625 -1.8984375 12.6328125 C-3.12433594 12.38144531 -3.12433594 12.38144531 -4.375 12.125 C-5.18710937 11.96257812 -5.99921875 11.80015625 -6.8359375 11.6328125 C-9 11 -9 11 -11 9 C-11.32339354 5.96010077 -11.45670212 3.85631647 -10 1.125 C-6.78377018 -0.68412927 -3.54008248 -0.64688254 0 0 Z M-6 4 C-6.33 4.99 -6.66 5.98 -7 7 C-4.03 7.495 -4.03 7.495 -1 8 C-0.67 7.01 -0.34 6.02 0 5 C-1.06645115 3.70366379 -1.06645115 3.70366379 -3.5625 3.9375 C-4.366875 3.958125 -5.17125 3.97875 -6 4 Z " fill="#D0D0D1" transform="translate(404,375)"/>
<path d="M0 0 C2.85793316 2.85793316 2.40799941 5.14665584 2.625 9.125 C2.69976562 10.40632813 2.77453125 11.68765625 2.8515625 13.0078125 C2.92503906 14.48894531 2.92503906 14.48894531 3 16 C1.04196493 16.05389087 -0.91648909 16.09274217 -2.875 16.125 C-4.51082031 16.15980469 -4.51082031 16.15980469 -6.1796875 16.1953125 C-9 16 -9 16 -11 14 C-11.125 11.125 -11.125 11.125 -11 8 C-11 6.68 -11 5.36 -11 4 C-7.93316969 -0.41623565 -5.17478462 -0.57497607 0 0 Z M-6 4 C-6 4.66 -6 5.32 -6 6 C-4.68 5.34 -3.36 4.68 -2 4 C-3.32 4 -4.64 4 -6 4 Z " fill="#B9B9BA" transform="translate(326,380)"/>
<path d="M0 0 C1.9375 1.5625 1.9375 1.5625 3 4 C3.37415101 8.19049133 3.44561026 11.46745185 1 15 C-1.84083641 16.42041821 -3.85477278 16.31452272 -7 16 C-9.375 14.5 -9.375 14.5 -11 12 C-11.81157964 7.95866467 -11.63559176 5.01694681 -9.4375 1.5 C-6.06575823 -0.57491801 -3.88409465 -0.56495922 0 0 Z M-6 4 C-2 5 -2 5 -2 5 Z M-6 10 C-5.67 10.66 -5.34 11.32 -5 12 C-4.34 12 -3.68 12 -3 12 C-3 11.34 -3 10.68 -3 10 C-3.99 10 -4.98 10 -6 10 Z " fill="#CFCDCC" transform="translate(464,380)"/>
<path d="M0 0 C2.28677385 1.77040556 2.86400707 3.06528805 3.27734375 5.90625 C3.42852435 9.14756204 3.21395458 11.49657747 1.9375 14.5 C0 16 0 16 -3.4375 16.5625 C-7 16 -7 16 -9.4375 13.9375 C-11.38925759 10.26819573 -11.59677999 8.10286241 -11 4 C-8.11930897 -0.49387801 -5.1100914 -0.74328602 0 0 Z M-6 4 C-2 5 -2 5 -2 5 Z M-6 10 C-4.515 10.99 -4.515 10.99 -3 12 C-2.34 11.34 -1.68 10.68 -1 10 C-2.65 10 -4.3 10 -6 10 Z " fill="#CECECF" transform="translate(367,380)"/>
<path d="M0 0 C3.66717106 0.68759457 4.81492345 1.56813584 7 4.5625 C8.09310383 7.60757494 8.12181739 9.1259877 7.25 12.25 C6 14.5625 6 14.5625 3 16.5625 C-0.02858829 16.87797795 -2.11081068 17.05308721 -4.8125 15.5625 C-6.69427746 12.39319059 -7.22572997 9.18828766 -7 5.5625 C-5.08435971 1.88447064 -4.0994083 0.76863906 0 0 Z M-2 4.5625 C2 5.5625 2 5.5625 2 5.5625 Z M-2 10.5625 C-1.67 11.2225 -1.34 11.8825 -1 12.5625 C-0.01 12.5625 0.98 12.5625 2 12.5625 C2 11.9025 2 11.2425 2 10.5625 C0.68 10.5625 -0.64 10.5625 -2 10.5625 Z " fill="#EFEFEE" transform="translate(258,379.4375)"/>
<path d="M0 0 C0.66 0 1.32 0 2 0 C2 2.97 2 5.94 2 9 C4.475 9.99 4.475 9.99 7 11 C7 11.66 7 12.32 7 13 C6.01 13 5.02 13 4 13 C4 13.99 4 14.98 4 16 C6.31 16 8.62 16 11 16 C11 16.66 11 17.32 11 18 C7.526511 18.31577173 5.62436479 18.4218681 2.6875 16.4375 C0.53202866 13.32404139 0.2871949 10.73353364 0 7 C-0.45375 7.886875 -0.9075 8.77375 -1.375 9.6875 C-4.46746454 14.23969431 -8.85286795 16.35460533 -14 18 C-20.62979259 18.88286183 -26.35489726 18.76340183 -32 15 C-29.16615892 14.17485216 -26.83064749 13.92063767 -23.890625 14.12109375 C-23.13652344 14.16943359 -22.38242187 14.21777344 -21.60546875 14.26757812 C-20.43951172 14.35168945 -20.43951172 14.35168945 -19.25 14.4375 C-18.45722656 14.48970703 -17.66445313 14.54191406 -16.84765625 14.59570312 C-14.89806003 14.72489324 -12.94897114 14.86169965 -11 15 C-10.87625 14.236875 -10.7525 13.47375 -10.625 12.6875 C-10 10 -10 10 -8 7 C-7.154375 6.67 -6.30875 6.34 -5.4375 6 C-4.633125 5.67 -3.82875 5.34 -3 5 C-2.67 4.01 -2.34 3.02 -2 2 C-1.34 2 -0.68 2 0 2 C0 1.34 0 0.68 0 0 Z " fill="#C88426" transform="translate(439,352)"/>
<path d="M0 0 C0.99 0.66 1.98 1.32 3 2 C3.625 5.375 3.625 5.375 4 9 C4.1753125 9.63550781 4.350625 10.27101563 4.53125 10.92578125 C5.07112022 13.31470696 4.99042888 15.36925536 4.875 17.8125 C4.81745136 22.67536001 5.65024138 25.75235941 8 30 C8.66 30.33 9.32 30.66 10 31 C10.625 34.0625 10.625 34.0625 11 37 C10.34 37 9.68 37 9 37 C7.2856382 35.04072937 5.61594832 33.04119788 4 31 C3.7525 32.093125 3.505 33.18625 3.25 34.3125 C2 38 2 38 0.25 39.9375 C-2.76566861 41.36156573 -4.70166169 41.48100767 -8 41 C-10.3125 39.6875 -10.3125 39.6875 -12 37 C-12.62674361 33.33960666 -12.87211417 29.70868906 -13 26 C-12.34 26 -11.68 26 -11 26 C-10.93941406 26.61488281 -10.87882812 27.22976563 -10.81640625 27.86328125 C-10.73261719 28.67152344 -10.64882813 29.47976563 -10.5625 30.3125 C-10.48128906 31.11300781 -10.40007812 31.91351563 -10.31640625 32.73828125 C-10.04734307 35.16087179 -10.04734307 35.16087179 -9 38 C-6.69 38 -4.38 38 -2 38 C-2 37.01 -2 36.02 -2 35 C-1.01 35 -0.02 35 1 35 C1.04954711 30.94323508 1.085789 26.88658806 1.10986328 22.82958984 C1.11990253 21.45032685 1.13353677 20.07108504 1.15087891 18.69189453 C1.17521754 16.7061486 1.18543255 14.7202455 1.1953125 12.734375 C1.21102295 10.94338379 1.21102295 10.94338379 1.22705078 9.11621094 C1.00706016 6.09689884 0.41049893 4.59769987 -1 2 C-0.67 1.34 -0.34 0.68 0 0 Z " fill="#A4651D" transform="translate(396,329)"/>
<path d="M0 0 C0.99 0 1.98 0 3 0 C3.33 2.64 3.66 5.28 4 8 C4.4125 7.505 4.825 7.01 5.25 6.5 C7 5 7 5 11 5 C10.625 6.9375 10.625 6.9375 10 9 C9.01 9.495 9.01 9.495 8 10 C8.45487191 12.5472827 8.97953003 13.97297965 10.5625 16.0625 C12 18 12 18 12 21 C9.625 20.75 9.625 20.75 7 20 C5.8125 18 5.8125 18 5 16 C4.34 15.67 3.68 15.34 3 15 C3 16.98 3 18.96 3 21 C1.68 20.67 0.36 20.34 -1 20 C-1.02888514 16.85418577 -1.04675923 13.70840531 -1.0625 10.5625 C-1.07087891 9.66466797 -1.07925781 8.76683594 -1.08789062 7.84179688 C-1.09111328 6.98779297 -1.09433594 6.13378906 -1.09765625 5.25390625 C-1.10551147 4.06776733 -1.10551147 4.06776733 -1.11352539 2.85766602 C-1 1 -1 1 0 0 Z " fill="#D0D0CF" transform="translate(338,375)"/>
<path d="M0 0 C1.32 0 2.64 0 4 0 C4.33 3.63 4.66 7.26 5 11 C5.66 10.67 6.32 10.34 7 10 C7.46751788 7.64400765 7.46751788 7.64400765 7.625 4.9375 C7.73714844 3.55884766 7.73714844 3.55884766 7.8515625 2.15234375 C7.90054687 1.44207031 7.94953125 0.73179687 8 0 C9.65 0.33 11.3 0.66 13 1 C13.02693575 3.12493141 13.04636628 5.24995912 13.0625 7.375 C13.07410156 8.55835938 13.08570313 9.74171875 13.09765625 10.9609375 C13 14 13 14 12 16 C10.37536158 16.05395478 8.75021459 16.09277195 7.125 16.125 C6.22007812 16.14820313 5.31515625 16.17140625 4.3828125 16.1953125 C2 16 2 16 0 14 C-0.1953125 10.7421875 -0.1953125 10.7421875 -0.125 6.875 C-0.10695313 5.59367187 -0.08890625 4.31234375 -0.0703125 2.9921875 C-0.04710937 2.00476563 -0.02390625 1.01734375 0 0 Z " fill="#A4A3A4" transform="translate(417,380)"/>
<path d="M0 0 C1.65 0 3.3 0 5 0 C5 6.93 5 13.86 5 21 C3.35 20.67 1.7 20.34 0 20 C-2 17 -2 17 -2 14 C-2.99 14.33 -3.98 14.66 -5 15 C-5.33 13.35 -5.66 11.7 -6 10 C-5.34 10 -4.68 10 -4 10 C-2.68 6.7 -1.36 3.4 0 0 Z " fill="#CECECD" transform="translate(302,375)"/>
<path d="M0 0 C0.99 0.33 1.98 0.66 3 1 C3.33 2.98 3.66 4.96 4 7 C4.66 5.68 5.32 4.36 6 3 C6.66 3 7.32 3 8 3 C8.66 2.34 9.32 1.68 10 1 C12.14286419 5.4643004 13.80486565 8.94084451 13 14 C11.3125 16 11.3125 16 9 17 C5.82913833 16.14928101 3.743586 14.82905734 1 13 C-0.08875763 10.08835102 -0.1078649 7.33481334 -0.0625 4.25 C-0.05347656 3.45078125 -0.04445313 2.6515625 -0.03515625 1.828125 C-0.02355469 1.22484375 -0.01195312 0.6215625 0 0 Z " fill="#F6921E" transform="translate(259,348)"/>
<path d="M0 0 C0.33 1.65 0.66 3.3 1 5 C0.01 5.495 0.01 5.495 -1 6 C-1.65772428 9.02934491 -1.65772428 9.02934491 -2 12 C-9.42857143 12.28571429 -9.42857143 12.28571429 -13 10 C-13 8.68 -13 7.36 -13 6 C-13.66 6 -14.32 6 -15 6 C-15 4.68 -15 3.36 -15 2 C-9.77487721 0.53329887 -5.4185766 -0.22577402 0 0 Z " fill="#F5921E" transform="translate(240,356)"/>
<path d="M0 0 C0.99 0.495 0.99 0.495 2 1 C2.01030746 1.56740906 2.02061493 2.13481812 2.03123474 2.71942139 C2.13940321 8.62426028 2.25399285 14.52894976 2.37231445 20.43359375 C2.4156301 22.637338 2.45730759 24.84111508 2.49731445 27.04492188 C2.55509844 30.21234024 2.61876976 33.37959386 2.68359375 36.546875 C2.70030624 37.53242371 2.71701874 38.51797241 2.73423767 39.53338623 C2.75418289 40.4540387 2.77412811 41.37469116 2.79467773 42.32324219 C2.81799416 43.53569611 2.81799416 43.53569611 2.84178162 44.77264404 C2.99702135 46.95806731 3.40008809 48.89708581 4 51 C8.62730711 52.0448758 13.28853878 52.51756279 18 53 C17.67 53.66 17.34 54.32 17 55 C12.2969658 55.37624274 8.8956724 55.42340877 4.5625 53.375 C1.14432494 50.20693531 0.17730581 47.38897941 -0.16876221 42.72613525 C-0.23125178 40.00505799 -0.22478138 37.29194288 -0.1953125 34.5703125 C-0.1924826 33.57998016 -0.18965271 32.58964783 -0.18673706 31.56930542 C-0.1755847 28.42107824 -0.15048907 25.27314051 -0.125 22.125 C-0.11496382 19.98437912 -0.10583908 17.84375376 -0.09765625 15.703125 C-0.07566158 10.46865203 -0.04223333 5.2343467 0 0 Z " fill="#D38F37" transform="translate(259,236)"/>
<path d="M0 0 C1.32 0 2.64 0 4 0 C2.66666667 6.66666667 1.33333333 13.33333333 0 20 C-1.65 20.33 -3.3 20.66 -5 21 C-5.19335938 20.28972656 -5.38671875 19.57945312 -5.5859375 18.84765625 C-5.84632813 17.92855469 -6.10671875 17.00945312 -6.375 16.0625 C-6.63023437 15.14597656 -6.88546875 14.22945313 -7.1484375 13.28515625 C-7.76660104 10.83254913 -7.76660104 10.83254913 -10 10 C-10 9.01 -10 8.02 -10 7 C-9.01 7 -8.02 7 -7 7 C-6.67 7.66 -6.34 8.32 -6 9 C-5.34 8.67 -4.68 8.34 -4 8 C-4 8.66 -4 9.32 -4 10 C-3.34 10 -2.68 10 -2 10 C-1.34 6.7 -0.68 3.4 0 0 Z " fill="#A0A09E" transform="translate(241,375)"/>
<path d="M0 0 C1.98 0 3.96 0 6 0 C5.29875 0.680625 4.5975 1.36125 3.875 2.0625 C3.41996094 2.52914062 2.96492188 2.99578125 2.49609375 3.4765625 C1.51407843 4.47652589 0.50634697 5.45198922 -0.52734375 6.3984375 C-9.07120636 14.96404022 -9.48343099 27.57241917 -9.58520508 38.9831543 C-9.68165413 44.39130592 -10.41785189 48.2081897 -13 53 C-13.99 53.495 -13.99 53.495 -15 54 C-15.37807781 49.46306628 -15.37807781 49.46306628 -13.51098633 47.17626953 C-11.59605806 44.41820351 -11.62649336 42.76316454 -11.63671875 39.4296875 C-11.63736328 38.36878906 -11.63800781 37.30789062 -11.63867188 36.21484375 C-11.65478516 35.11269531 -11.67089844 34.01054687 -11.6875 32.875 C-11.68266602 31.21017578 -11.68266602 31.21017578 -11.67773438 29.51171875 C-11.30901647 23.69058194 -11.30901647 23.69058194 -14 19 C-12.35 18.67 -10.7 18.34 -9 18 C-8.814375 16.9171875 -8.814375 16.9171875 -8.625 15.8125 C-8 13 -8 13 -6.9375 10.375 C-5.81641673 7.9604786 -5.81641673 7.9604786 -6 5 C-4.02 4.67 -2.04 4.34 0 4 C0 2.68 0 1.36 0 0 Z " fill="#AE6D23" transform="translate(200,204)"/>
<path d="M0 0 C1.32 0 2.64 0 4 0 C4.33 0.66 4.66 1.32 5 2 C5.99 2.33 6.98 2.66 8 3 C9.75 5.375 9.75 5.375 11 8 C10.67 8.99 10.34 9.98 10 11 C6.0323069 12.0502717 2.98866127 11.99716532 -1 11 C-2.38550197 8.22899606 -2.1877467 6.0665294 -2 3 C-1.34 2.01 -0.68 1.02 0 0 Z " fill="#F7921B" transform="translate(387,314)"/>
<path d="M0 0 C3 2 3 2 3.875 3.8125 C4.05429345 6.9501353 2.81729754 8.5096293 1 11 C-2.05693322 12.52846661 -4.62984547 12.23242445 -8 12 C-10.375 10.8125 -10.375 10.8125 -12 9 C-12.75 6.3125 -12.75 6.3125 -13 4 C-11.68 3.67 -10.36 3.34 -9 3 C-8.01 4.485 -8.01 4.485 -7 6 C-3.93443402 6.73343428 -3.93443402 6.73343428 -1 7 C-1 6.01 -1 5.02 -1 4 C-1.99 3.67 -2.98 3.34 -4 3 C-2.68 3 -1.36 3 0 3 C0 2.01 0 1.02 0 0 Z " fill="#A2A1A1" transform="translate(405,384)"/>
<path d="M0 0 C0.99 0.33 1.98 0.66 3 1 C3 2.32 3 3.64 3 5 C3.50144531 5.63421875 4.00289063 6.2684375 4.51953125 6.921875 C6.45398691 9.63725867 6.15734429 11.0038031 5.6875 14.25 C5.56761719 15.14203125 5.44773437 16.0340625 5.32421875 16.953125 C5.21722656 17.62859375 5.11023438 18.3040625 5 19 C2.08517222 19.80967438 0.53886783 20.21845993 -2.3125 19.0625 C-3.1478125 18.5365625 -3.1478125 18.5365625 -4 18 C-2.02 17.67 -0.04 17.34 2 17 C3.10404445 12.18581859 3.10404445 12.18581859 1.875 7.5625 C0.07573782 5.79932433 0.07573782 5.79932433 -2.5 5.5625 C-4.98579109 5.85337294 -4.98579109 5.85337294 -6.875 7.0625 C-8.68060316 10.17214989 -7.79952488 12.61739473 -7 16 C-6.34 16.66 -5.68 17.32 -5 18 C-6.65 17.67 -8.3 17.34 -10 17 C-10 13.7 -10 10.4 -10 7 C-9.34 7 -8.68 7 -8 7 C-8 6.01 -8 5.02 -8 4 C-7.05125 3.855625 -6.1025 3.71125 -5.125 3.5625 C-2.1065506 3.17064601 -2.1065506 3.17064601 0 2 C0 1.34 0 0.68 0 0 Z " fill="#E28F2B" transform="translate(422,337)"/>
<path d="M0 0 C0.99 0 1.98 0 3 0 C2.61015648 5.45780927 0.84460059 8.15539941 -3 12 C-7.79183709 15.19455806 -11.40339613 15.63187463 -17 15 C-19.56444534 13.15885976 -20.65190128 11.82051841 -21.875 8.9375 C-22 7 -22 7 -20 4 C-20 4.99 -20 5.98 -20 7 C-19.34 7 -18.68 7 -18 7 C-17.67 8.32 -17.34 9.64 -17 11 C-13.7 11.66 -10.4 12.32 -7 13 C-7 10.69 -7 8.38 -7 6 C-6.34 6.33 -5.68 6.66 -5 7 C-5 7.66 -5 8.32 -5 9 C-3.35 8.34 -1.7 7.68 0 7 C0 4.69 0 2.38 0 0 Z " fill="#C38027" transform="translate(245,355)"/>
<path d="M0 0 C0 0.33 0 0.66 0 1 C-2.97 0.67 -5.94 0.34 -9 0 C-9 0.66 -9 1.32 -9 2 C-9.99 2 -10.98 2 -12 2 C-11.67 1.01 -11.34 0.02 -11 -1 C-11.99 -1.33 -12.98 -1.66 -14 -2 C-14 -2.66 -14 -3.32 -14 -4 C-15.98 -4 -17.96 -4 -20 -4 C-20 -4.66 -20 -5.32 -20 -6 C-28.58 -6 -37.16 -6 -46 -6 C-46 -6.33 -46 -6.66 -46 -7 C-29.07951695 -9.21907974 -15.38540051 -7.23751089 0 0 Z " fill="#C38232" transform="translate(256,181)"/>
<path d="M0 0 C2.97 0 5.94 0 9 0 C9 1.32 9 2.64 9 4 C7.35 4 5.7 4 4 4 C4 7.63 4 11.26 4 15 C2.68 15.33 1.36 15.66 0 16 C0 10.72 0 5.44 0 0 Z " fill="#C2C2C1" transform="translate(438,380)"/>
<path d="M0 0 C1.12858756 3.38576269 0.7390469 4.59328878 0 8 C-0.10951685 9.80893443 -0.17505029 11.62086759 -0.20532227 13.43286133 C-0.22526749 14.49358353 -0.24521271 15.55430573 -0.26576233 16.64717102 C-0.28247482 17.7806749 -0.29918732 18.91417877 -0.31640625 20.08203125 C-0.33718735 21.25134689 -0.35796844 22.42066254 -0.37937927 23.62541199 C-0.44467414 27.35438253 -0.50366659 31.08342247 -0.5625 34.8125 C-0.60570429 37.34310609 -0.64931919 39.8737052 -0.69335938 42.40429688 C-0.800335 48.60279158 -0.90213848 54.80135506 -1 61 C-1.33 61 -1.66 61 -2 61 C-2.16825677 53.24054221 -2.32814157 45.48094444 -2.48217773 37.72119141 C-2.53558187 35.08085209 -2.59090998 32.44055097 -2.64819336 29.80029297 C-2.73014809 26.00757075 -2.80520677 22.21476549 -2.87890625 18.421875 C-2.90594131 17.23946228 -2.93297638 16.05704956 -2.96083069 14.83880615 C-2.98092697 13.73796692 -3.00102325 12.63712769 -3.02172852 11.50292969 C-3.04171402 10.53474304 -3.06169952 9.5665564 -3.08229065 8.56903076 C-3.00664119 6.20733137 -2.67864114 4.25387191 -2 2 C-1.34 2 -0.68 2 0 2 C0 1.34 0 0.68 0 0 Z " fill="#CA883E" transform="translate(98,221)"/>
<path d="M0 0 C0.33 0 0.66 0 1 0 C1.33 7.26 1.66 14.52 2 22 C3.32 22.33 4.64 22.66 6 23 C7.65079442 21.34920558 7.22549447 19.36263821 7.31640625 17.08984375 C7.35830078 16.10048828 7.40019531 15.11113281 7.44335938 14.09179688 C7.50233398 12.53041992 7.50233398 12.53041992 7.5625 10.9375 C7.60568359 9.89271484 7.64886719 8.84792969 7.69335938 7.77148438 C7.79981225 5.18113116 7.9018276 2.59067814 8 0 C8.33 0 8.66 0 9 0 C9 8.25 9 16.5 9 25 C6.43106162 26.28446919 4.23423663 26.32977144 1.375 26.5625 C-0.12933594 26.68818359 -0.12933594 26.68818359 -1.6640625 26.81640625 C-2.43492187 26.87699219 -3.20578125 26.93757813 -4 27 C-3.01 25.515 -3.01 25.515 -2 24 C-1.34 24 -0.68 24 0 24 C0 16.08 0 8.16 0 0 Z " fill="#B27127" transform="translate(326,331)"/>
<path d="M0 0 C1.485 0.99 1.485 0.99 3 2 C3.625 5.375 3.625 5.375 4 9 C4.1753125 9.63550781 4.350625 10.27101563 4.53125 10.92578125 C5.07112022 13.31470696 4.99042888 15.36925536 4.875 17.8125 C4.81745136 22.67536001 5.65024138 25.75235941 8 30 C8.66 30.33 9.32 30.66 10 31 C10.625 34.0625 10.625 34.0625 11 37 C10.34 37 9.68 37 9 37 C8.0234375 35.27473958 7.046875 33.54947917 6.0703125 31.82421875 C5.10571419 30.18017711 4.05732941 28.58599412 3 27 C2.62109375 24.79516602 2.62109375 24.79516602 2.4375 22.25390625 C2.36273438 21.33416016 2.28796875 20.41441406 2.2109375 19.46679688 C2.14132812 18.50837891 2.07171875 17.54996094 2 16.5625 C1.86180204 14.66739648 1.71623905 12.77281235 1.5625 10.87890625 C1.50191406 10.0391626 1.44132812 9.19941895 1.37890625 8.33422852 C1.11207516 5.95049725 1.11207516 5.95049725 -0.09765625 3.82006836 C-0.39542969 3.2194458 -0.69320313 2.61882324 -1 2 C-0.67 1.34 -0.34 0.68 0 0 Z " fill="#D0882D" transform="translate(396,329)"/>
<path d="M0 0 C0.66 0.66 1.32 1.32 2 2 C1.86628937 5.67704228 1.77513533 8.11002981 -0.6875 10.9375 C-3.69101831 12.3174949 -5.72976207 12.41747718 -9 12 C-10.875 10.5 -10.875 10.5 -12 9 C-11.67 8.01 -11.34 7.02 -11 6 C-8.59454362 4.79727181 -7.05003047 4.89928528 -4.375 4.9375 C-3.14910156 4.95103516 -3.14910156 4.95103516 -1.8984375 4.96484375 C-0.95871094 4.98224609 -0.95871094 4.98224609 0 5 C-0.33 4.01 -0.66 3.02 -1 2 C-0.67 1.34 -0.34 0.68 0 0 Z M-8 6 C-7.67 6.66 -7.34 7.32 -7 8 C-6.01 8 -5.02 8 -4 8 C-4 7.34 -4 6.68 -4 6 C-5.32 6 -6.64 6 -8 6 Z " fill="#BBBABA" transform="translate(264,384)"/>
<path d="M0 0 C1.65 0 3.3 0 5 0 C4.84660156 0.82757813 4.69320313 1.65515625 4.53515625 2.5078125 C3.95525257 6.29200145 3.66314222 10.05757751 3.4375 13.875 C3.39431641 14.56335938 3.35113281 15.25171875 3.30664062 15.9609375 C3.20167078 17.640455 3.10044571 19.32020586 3 21 C2.01 21 1.02 21 0 21 C0 14.07 0 7.14 0 0 Z " fill="#C9C8C8" transform="translate(288,375)"/>
<path d="M0 0 C0.66 0.66 1.32 1.32 2 2 C-1.68266103 1.40049704 -5.34543185 0.75241109 -9 0 C-9 0.99 -9 1.98 -9 3 C-8.34 3.33 -7.68 3.66 -7 4 C-8.32 4.33 -9.64 4.66 -11 5 C-11 4.34 -11 3.68 -11 3 C-14.66305234 2.25073929 -17.42355152 1.7619986 -21 3 C-21 3.66 -21 4.32 -21 5 C-22.32 4.67 -23.64 4.34 -25 4 C-18.57208417 -3.4428499 -8.62352821 -2.40951523 0 0 Z " fill="#D57F25" transform="translate(429,329)"/>
<path d="M0 0 C0.66 0 1.32 0 2 0 C2 0.99 2 1.98 2 3 C2.66 3 3.32 3 4 3 C3.9375 4.75 3.9375 4.75 3 7 C-1.98528951 10.59491982 -6.05866216 12.12703551 -12.125 12.0625 C-13.22070312 12.05347656 -14.31640625 12.04445313 -15.4453125 12.03515625 C-16.28835938 12.02355469 -17.13140625 12.01195312 -18 12 C-18 11.34 -18 10.68 -18 10 C-18.66 9.67 -19.32 9.34 -20 9 C-14.06 9 -8.12 9 -2 9 C-2 8.01 -2 7.02 -2 6 C-1.01 6 -0.02 6 1 6 C0.34 4.35 -0.32 2.7 -1 1 C-0.67 0.67 -0.34 0.34 0 0 Z " fill="#C38027" transform="translate(290,358)"/>
<path d="M0 0 C0.99 0.66 1.98 1.32 3 2 C3 2.66 3 3.32 3 4 C2.01 4.66 1.02 5.32 0 6 C0 6.66 0 7.32 0 8 C-3 9 -6 10 -9 11 C-9.33 9.35 -9.66 7.7 -10 6 C-9.34 6 -8.68 6 -8 6 C-8 5.34 -8 4.68 -8 4 C-6.35 4 -4.7 4 -3 4 C-3 3.34 -3 2.68 -3 2 C-2.01 2 -1.02 2 0 2 C0 1.34 0 0.68 0 0 Z " fill="#F99020" transform="translate(411,330)"/>
<path d="M0 0 C-0.99 1.485 -0.99 1.485 -2 3 C-5.125 3.1875 -5.125 3.1875 -8 3 C-7.01 4.65 -6.02 6.3 -5 8 C-5.99 8.495 -5.99 8.495 -7 9 C-7 8.34 -7 7.68 -7 7 C-9.85078091 6.23283149 -9.85078091 6.23283149 -13 6 C-14.66666667 7.33333333 -14.66666667 7.33333333 -16 9 C-18.1875 9.6875 -18.1875 9.6875 -20 10 C-15.83750979 3.56706058 -7.89441377 -2.90846823 0 0 Z " fill="#E18924" transform="translate(109,181)"/>
<path d="M0 0 C0.99 0 1.98 0 3 0 C3 10.56 3 21.12 3 32 C2.67 32 2.34 32 2 32 C1.24229215 27.88518795 0.82844645 23.90659766 0.68359375 19.7265625 C0.64169922 18.57285156 0.59980469 17.41914063 0.55664062 16.23046875 C0.51732422 15.04066406 0.47800781 13.85085938 0.4375 12.625 C0.37272461 10.80548828 0.37272461 10.80548828 0.30664062 8.94921875 C0.20094487 5.96624968 0.09884679 2.98320258 0 0 Z " fill="#9B721E" transform="translate(460,342)"/>
<path d="M0 0 C0.33 0 0.66 0 1 0 C1 7.26 1 14.52 1 22 C1.66 22 2.32 22 3 22 C3 24.97 3 27.94 3 31 C2.34 30.67 1.68 30.34 1 30 C-0.88579014 22.91082596 -1.17926578 15.54963336 -1.1875 8.25 C-1.18830566 7.54673584 -1.18911133 6.84347168 -1.18994141 6.11889648 C-1.13458062 1.13458062 -1.13458062 1.13458062 0 0 Z " fill="#B47C2B" transform="translate(166,224)"/>
<path d="M0 0 C1.98 0 3.96 0 6 0 C2.72358564 3.51044395 0.2443224 5.74245481 -4.62109375 6.30078125 C-13.96457938 6.33965844 -13.96457938 6.33965844 -18 3 C-14.6717269 1.33586345 -11.00266027 2.18132594 -7.375 2.4375 C-6.57320313 2.48970703 -5.77140625 2.54191406 -4.9453125 2.59570312 C-2.96320897 2.72548371 -0.98155501 2.86209735 1 3 C0.67 2.01 0.34 1.02 0 0 Z " fill="#C37D2A" transform="translate(374,364)"/>
<path d="M0 0 C6.31619537 -0.48586118 6.31619537 -0.48586118 9.375 1.6875 C11.21921807 4.31196417 11.92169023 5.78929947 12 9 C11 11.6875 11 11.6875 9 14 C5.3125 15.3125 5.3125 15.3125 2 16 C2 15.01 2 14.02 2 13 C5.465 12.505 5.465 12.505 9 12 C8.67 9.36 8.34 6.72 8 4 C5.36 3.34 2.72 2.68 0 2 C0 1.34 0 0.68 0 0 Z " fill="#B9772E" transform="translate(246,312)"/>
<path d="M0 0 C0.33 0 0.66 0 1 0 C1.33 1.65 1.66 3.3 2 5 C5.63 5 9.26 5 13 5 C12.01 5.33 11.02 5.66 10 6 C8.78130071 8.50447516 8.78130071 8.50447516 8 11 C8.66 11.33 9.32 11.66 10 12 C6.54330418 12.31424507 4.60098323 12.37956836 1.625 10.5 C-0.73613198 6.86748926 -0.2854378 4.28156703 0 0 Z M5 6 C5.33 6.66 5.66 7.32 6 8 C6.66 8 7.32 8 8 8 C8 7.34 8 6.68 8 6 C7.01 6 6.02 6 5 6 Z " fill="#969595" transform="translate(453,384)"/>
<path d="M0 0 C0.66 0.66 1.32 1.32 2 2 C-2.75 3.125 -2.75 3.125 -5 2 C-5.33 3.32 -5.66 4.64 -6 6 C-6.99 6 -7.98 6 -9 6 C-9 11.94 -9 17.88 -9 24 C-9.33 24 -9.66 24 -10 24 C-10.08681476 20.37515001 -10.14032721 16.75056557 -10.1875 13.125 C-10.21263672 12.09246094 -10.23777344 11.05992187 -10.26367188 9.99609375 C-10.27333984 9.00996094 -10.28300781 8.02382813 -10.29296875 7.0078125 C-10.31653442 5.64100342 -10.31653442 5.64100342 -10.34057617 4.24658203 C-10.22818604 3.50520996 -10.1157959 2.76383789 -10 2 C-6.32653229 -0.44897847 -4.33643601 -0.31537716 0 0 Z " fill="#DE8F32" transform="translate(345,328)"/>
<path d="M0 0 C7.875 0.875 7.875 0.875 9 2 C9.14115161 4.67058851 9.04247107 7.32432238 9 10 C7.02 10.33 5.04 10.66 3 11 C3.20625 10.38125 3.4125 9.7625 3.625 9.125 C3.74875 8.42375 3.8725 7.7225 4 7 C3.34 6.34 2.68 5.68 2 5 C2 4.01 2 3.02 2 2 C1.34 1.34 0.68 0.68 0 0 Z " fill="#F7931D" transform="translate(246,314)"/>
<path d="M0 0 C1.32 0 2.64 0 4 0 C4.4803318 1.58298026 4.95921612 3.16639978 5.4375 4.75 C5.83775391 6.07257813 5.83775391 6.07257813 6.24609375 7.421875 C6.88468494 9.60565835 7.46775833 11.78835498 8 14 C7.34 14 6.68 14 6 14 C5.67 13.34 5.34 12.68 5 12 C4.67 13.65 4.34 15.3 4 17 C3.67 17 3.34 17 3 17 C2.49453964 14.91798472 1.99583165 12.83432933 1.5 10.75 C1.2215625 9.58984375 0.943125 8.4296875 0.65625 7.234375 C0 4 0 4 0 0 Z " fill="#B6B5B3" transform="translate(220,375)"/>
<path d="M0 0 C0.99 0 1.98 0 3 0 C3.02698189 1.62490954 3.04638757 3.24994633 3.0625 4.875 C3.07410156 5.77992188 3.08570313 6.68484375 3.09765625 7.6171875 C3 10 3 10 2 12 C2.66 12.33 3.32 12.66 4 13 C3.67 14.98 3.34 16.96 3 19 C2.01 19 1.02 19 0 19 C0 12.73 0 6.46 0 0 Z " fill="#E7E7E6" transform="translate(337,376)"/>
<path d="M0 0 C0.69416016 -0.01224609 1.38832031 -0.02449219 2.10351562 -0.03710938 C3.92470901 -0.04239842 5.7453692 0.06580793 7.5625 0.1875 C8.2225 0.8475 8.8825 1.5075 9.5625 2.1875 C8.69109375 2.22488281 7.8196875 2.26226562 6.921875 2.30078125 C-1.19011127 2.74852075 -8.63820982 3.91627813 -16.4375 6.1875 C-16.1075 4.8675 -15.7775 3.5475 -15.4375 2.1875 C-14.303125 2.043125 -13.16875 1.89875 -12 1.75 C-0.92205882 0.00085139 -0.92205882 0.00085139 0 0 Z " fill="#DC8E34" transform="translate(130.4375,196.8125)"/>
<path d="M0 0 C3.97999911 1.98999956 7.48759435 4.55442273 10.875 7.4375 C10.875 7.7675 10.875 8.0975 10.875 8.4375 C4.125 10.5625 4.125 10.5625 1.875 9.4375 C2.205 7.4575 2.535 5.4775 2.875 3.4375 C0.11223823 3.96018466 -2.4510876 4.54619587 -5.125 5.4375 C-4.75 3 -4.75 3 -4.125 0.4375 C-2.125 -0.5625 -2.125 -0.5625 0 0 Z " fill="#D08023" transform="translate(160.125,180.5625)"/>
<path d="M0 0 C0.66 0 1.32 0 2 0 C3.0997724 5.79879994 3.35171548 8.85272265 0 14 C-1.3125 15.875 -1.3125 15.875 -3 17 C-6.1875 17.1875 -6.1875 17.1875 -9 17 C-9.33 16.34 -9.66 15.68 -10 15 C-7.69 15 -5.38 15 -3 15 C-3 14.01 -3 13.02 -3 12 C-2.34 12 -1.68 12 -1 12 C-1.01160156 11.38511719 -1.02320313 10.77023437 -1.03515625 10.13671875 C-1.04417969 9.32847656 -1.05320312 8.52023437 -1.0625 7.6875 C-1.07410156 6.88699219 -1.08570313 6.08648437 -1.09765625 5.26171875 C-1 3 -1 3 0 0 Z " fill="#AF681F" transform="translate(312,353)"/>
<path d="M0 0 C1.65 0 3.3 0 5 0 C4.34 1.98 3.68 3.96 3 6 C6.96 6 10.92 6 15 6 C14.67 6.66 14.34 7.32 14 8 C8.39 8 2.78 8 -3 8 C-3.33 7.01 -3.66 6.02 -4 5 C-3.01 4.67 -2.02 4.34 -1 4 C-0.26676204 1.98491642 -0.26676204 1.98491642 0 0 Z " fill="#F0952B" transform="translate(366,334)"/>
<path d="M0 0 C1.32 0.33 2.64 0.66 4 1 C4 1.33 4 1.66 4 2 C5.65 2.33 7.3 2.66 9 3 C9 3.99 9 4.98 9 6 C16.92 5.505 16.92 5.505 25 5 C20.36767174 8.47424619 18.45555816 8.62281139 12.90234375 8.49609375 C8.11750473 7.67822759 4.57209643 5.20657959 1 2 C0.67 1.34 0.34 0.68 0 0 Z " fill="#AA712B" transform="translate(315,362)"/>
<path d="M0 0 C-0.99 1.485 -0.99 1.485 -2 3 C-2.45915507 5.96842658 -2.45915507 5.96842658 -2.625 9.1875 C-2.69976562 10.27417969 -2.77453125 11.36085938 -2.8515625 12.48046875 C-2.90054687 13.31191406 -2.94953125 14.14335937 -3 15 C-3.66 15 -4.32 15 -5 15 C-5 12.36 -5 9.72 -5 7 C-5.99 7 -6.98 7 -8 7 C-8.66 5.02 -9.32 3.04 -10 1 C-6.78548731 -0.60725635 -3.56387464 -0.05748185 0 0 Z " fill="#CD7A16" transform="translate(388,334)"/>
<path d="M0 0 C3.53586014 3.17320782 5.58578031 5.16743695 6 10 C3.625 9.75 3.625 9.75 1 9 C-0.1875 7 -0.1875 7 -1 5 C-1.66 4.67 -2.32 4.34 -3 4 C-3 5.98 -3 7.96 -3 10 C-3.99 9.67 -4.98 9.34 -6 9 C-5.34 9 -4.68 9 -4 9 C-4 7.02 -4 5.04 -4 3 C-2.68 2.67 -1.36 2.34 0 2 C0 1.34 0 0.68 0 0 Z " fill="#A2A0A2" transform="translate(344,386)"/>
<path d="M0 0 C0.66 0 1.32 0 2 0 C2 2.97 2 5.94 2 9 C4.475 9.99 4.475 9.99 7 11 C7 11.66 7 12.32 7 13 C6.01 13 5.02 13 4 13 C4 13.99 4 14.98 4 16 C6.31 16 8.62 16 11 16 C11 16.66 11 17.32 11 18 C5.66882068 18.48465267 5.66882068 18.48465267 2.84375 16.4375 C0.37219198 13.17001652 0.40033319 10.80899619 0.25 6.75 C0.19328125 5.48671875 0.1365625 4.2234375 0.078125 2.921875 C0.05234375 1.95765625 0.0265625 0.9934375 0 0 Z " fill="#BA7722" transform="translate(439,352)"/>
<path d="M0 0 C2.33333333 2.33333333 4.66666667 4.66666667 7 7 C7 7.99 7 8.98 7 10 C7.66 10 8.32 10 9 10 C9.33 8.68 9.66 7.36 10 6 C10 8.64 10 11.28 10 14 C9.01 14.33 8.02 14.66 7 15 C6.38125 13.6078125 6.38125 13.6078125 5.75 12.1875 C4.28707909 8.95523394 4.28707909 8.95523394 1.8125 7.5 C1.214375 7.005 0.61625 6.51 0 6 C-0.25 2.8125 -0.25 2.8125 0 0 Z " fill="#BC7827" transform="translate(432,331)"/>
<path d="M0 0 C0.66 1.32 1.32 2.64 2 4 C2.66 4 3.32 4 4 4 C4.33 3.01 4.66 2.02 5 1 C5.33 1 5.66 1 6 1 C6.125 8.75 6.125 8.75 5 11 C3.35 10.67 1.7 10.34 0 10 C0 6.7 0 3.4 0 0 Z " fill="#CDCDCA" transform="translate(224,385)"/>
<path d="M0 0 C7.64463346 1.68441076 12.23367992 3.46837618 17 10 C16.01 10.33 15.02 10.66 14 11 C13.67 10.01 13.34 9.02 13 8 C11.35 8.33 9.7 8.66 8 9 C7.67 7.68 7.34 6.36 7 5 C7.66 4.67 8.32 4.34 9 4 C8.2575 4.04125 7.515 4.0825 6.75 4.125 C3.91241048 3.99601866 2.41226062 3.42948778 0 2 C0 1.34 0 0.68 0 0 Z " fill="#D18524" transform="translate(279,327)"/>
<path d="M0 0 C0.99 0 1.98 0 3 0 C2.80037128 3.59331694 2.21261372 4.79828955 -0.4375 7.3125 C-5.09709163 9.51967498 -8.93561658 9.36031186 -14 9 C-14.33 8.34 -14.66 7.68 -15 7 C-11.7 7 -8.4 7 -5 7 C-4.67 6.01 -4.34 5.02 -4 4 C-3.01 4.33 -2.02 4.66 -1 5 C-0.67 3.35 -0.34 1.7 0 0 Z " fill="#BE7A2D" transform="translate(93,282)"/>
<path d="M0 0 C0.99 0 1.98 0 3 0 C4.39935013 2.79870027 4.25265405 4.90498792 4 8 C2.45493534 10.03667615 1.27853844 10.86073078 -1 12 C-8.46666667 12.35555556 -8.46666667 12.35555556 -12 10 C-8.7 10.33 -5.4 10.66 -2 11 C-2 10.01 -2 9.02 -2 8 C-1.01 8 -0.02 8 1 8 C0.67 5.36 0.34 2.72 0 0 Z " fill="#B8772C" transform="translate(484,374)"/>
<path d="M0 0 C3.05733073 0.15794329 4.00255702 0.45906333 6.625 2.25 C8.0625 4.5 8.0625 4.5 7.8125 6.75 C7.565 7.3275 7.3175 7.905 7.0625 8.5 C5.7425 8.5 4.4225 8.5 3.0625 8.5 C3.0625 7.51 3.0625 6.52 3.0625 5.5 C1.0825 5.5 -0.8975 5.5 -2.9375 5.5 C-2.9375 4.84 -2.9375 4.18 -2.9375 3.5 C-1.2875 3.17 0.3625 2.84 2.0625 2.5 C-1.56278568 2.29859524 -3.80251708 2.64223235 -6.9375 4.5 C-5.0901244 0.80524881 -4.20930837 0.53451535 0 0 Z " fill="#ADADA9" transform="translate(399.9375,374.5)"/>
<path d="M0 0 C3 1 3 1 5 4 C4.9765625 6.48046875 4.9765625 6.48046875 4.625 9.1875 C4.45871094 10.53908203 4.45871094 10.53908203 4.2890625 11.91796875 C4.14597656 12.94857422 4.14597656 12.94857422 4 14 C1.08517222 14.80967438 -0.46113217 15.21845993 -3.3125 14.0625 C-3.869375 13.711875 -4.42625 13.36125 -5 13 C-3.02 12.67 -1.04 12.34 1 12 C1.92470553 7.28400182 2.22923777 4.32734391 0 0 Z " fill="#BF7C28" transform="translate(423,342)"/>
<path d="M0 0 C0.33 2.64 0.66 5.28 1 8 C0.01 7.34 -0.98 6.68 -2 6 C-3.32 7.65 -4.64 9.3 -6 11 C-6 8.69 -6 6.38 -6 4 C-6.66 4 -7.32 4 -8 4 C-7.67 3.01 -7.34 2.02 -7 1 C-4.52260646 0.09162237 -2.66420516 0 0 0 Z " fill="#D18126" transform="translate(350,353)"/>
<path d="M0 0 C0.33 0 0.66 0 1 0 C1.02469575 4.09341499 1.04285793 8.18680121 1.05493164 12.28027344 C1.0599643 13.67318477 1.06679098 15.0660908 1.07543945 16.45898438 C1.08755152 18.45961246 1.09270412 20.46027888 1.09765625 22.4609375 C1.10289307 23.66540527 1.10812988 24.86987305 1.11352539 26.11083984 C1 29 1 29 0 31 C-2.64860427 31.59355614 -5.29197322 31.74209269 -8 32 C-5.59660228 29.23609263 -4.83736322 28.95934081 -1 28 C-0.67 18.76 -0.34 9.52 0 0 Z " fill="#94662B" transform="translate(233,326)"/>
<path d="M0 0 C0.66 0 1.32 0 2 0 C2 0.66 2 1.32 2 2 C5.3 1.67 8.6 1.34 12 1 C12 2.32 12 3.64 12 5 C6.06 5.495 6.06 5.495 0 6 C0 4.02 0 2.04 0 0 Z " fill="#FBF9F8" transform="translate(454,384)"/>
<path d="M0 0 C0.33 0.66 0.66 1.32 1 2 C1.99 1.67 2.98 1.34 4 1 C4.66 1.33 5.32 1.66 6 2 C6 2.66 6 3.32 6 4 C5.34 4 4.68 4 4 4 C4.33 4.99 4.66 5.98 5 7 C4.01 7.33 3.02 7.66 2 8 C1.67 7.34 1.34 6.68 1 6 C-0.98 6.66 -2.96 7.32 -5 8 C-5.33 7.34 -5.66 6.68 -6 6 C-5.34 6 -4.68 6 -4 6 C-4 5.01 -4 4.02 -4 3 C-3.01 2.67 -2.02 2.34 -1 2 C-0.67 1.34 -0.34 0.68 0 0 Z " fill="#F19423" transform="translate(390,327)"/>
<path d="M0 0 C0.33 1.32 0.66 2.64 1 4 C3.97 4.495 3.97 4.495 7 5 C7 5.99 7 6.98 7 8 C1.66912345 8.43695709 1.66912345 8.43695709 -1 8 C-3.02829372 5.59140121 -4 4.16955691 -4 1 C-2 0 -2 0 0 0 Z " fill="#E1DFDF" transform="translate(396,387)"/>
<path d="M0 0 C0.66 0 1.32 0 2 0 C2.42171445 3.58457283 1.98385199 5.02895505 0.1875 8.25 C-2 11 -2 11 -5 12 C-5 10.68 -5 9.36 -5 8 C-5.66 8 -6.32 8 -7 8 C-6.67 7.01 -6.34 6.02 -6 5 C-4.33333333 4.33333333 -2.66666667 3.66666667 -1 3 C-0.67 2.01 -0.34 1.02 0 0 Z " fill="#D38028" transform="translate(437,354)"/>
<path d="M0 0 C0.33 0.66 0.66 1.32 1 2 C0.01 2 -0.98 2 -2 2 C-2 2.66 -2 3.32 -2 4 C-2.99 4.33 -3.98 4.66 -5 5 C-5 4.01 -5 3.02 -5 2 C-6.97536745 2.34786708 -6.97536745 2.34786708 -9 3 C-9.33 3.66 -9.66 4.32 -10 5 C-10.66 5 -11.32 5 -12 5 C-12 7.31 -12 9.62 -12 12 C-12.33 12 -12.66 12 -13 12 C-13.47792208 4.83116883 -13.47792208 4.83116883 -11.5625 1.5 C-7.78106272 -0.71352426 -4.2792407 -0.32917236 0 0 Z " fill="#B37428" transform="translate(396,312)"/>
<path d="M0 0 C0.99 0.33 1.98 0.66 3 1 C3 1.99 3 2.98 3 4 C7.62730711 5.0448758 12.28853878 5.51756279 17 6 C16.67 6.66 16.34 7.32 16 8 C11.20584946 8.38353204 7.87988115 8.43994058 3.5 6.25 C1.06193835 4.05574452 0.22930057 3.21020798 0 0 Z " fill="#B77A2B" transform="translate(260,283)"/>
<path d="M0 0 C0.66 0 1.32 0 2 0 C2 0.99 2 1.98 2 3 C2.99 2.67 3.98 2.34 5 2 C5 4.64 5 7.28 5 10 C3.68 10 2.36 10 1 10 C-0.60725635 6.78548731 -0.05748185 3.56387464 0 0 Z " fill="#A7A6A5" transform="translate(235,386)"/>
<path d="M0 0 C1.32 0 2.64 0 4 0 C3.34 3.3 2.68 6.6 2 10 C1.01 10.33 0.02 10.66 -1 11 C-1.125 3.375 -1.125 3.375 0 0 Z " fill="#CECECD" transform="translate(241,375)"/>
<path d="M0 0 C0.66 0 1.32 0 2 0 C2.06058594 0.61488281 2.12117188 1.22976563 2.18359375 1.86328125 C2.26738281 2.67152344 2.35117187 3.47976563 2.4375 4.3125 C2.51871094 5.11300781 2.59992188 5.91351563 2.68359375 6.73828125 C2.95265693 9.16087179 2.95265693 9.16087179 4 12 C6.64 12.33 9.28 12.66 12 13 C11.67 13.66 11.34 14.32 11 15 C7.6815772 15.3016748 5.61970211 15.35172282 2.6875 13.6875 C0.02899065 9.4535777 0.16933244 4.9106408 0 0 Z " fill="#AB6D20" transform="translate(383,355)"/>
<path d="M0 0 C4.77700421 1.9461869 8.13405342 5.1444002 10.3125 9.8125 C10.539375 10.534375 10.76625 11.25625 11 12 C10.01 12 9.02 12 8 12 C8 11.34 8 10.68 8 10 C6.68 9.34 5.36 8.68 4 8 C4.33 7.34 4.66 6.68 5 6 C4.34 6 3.68 6 3 6 C1.375 4.6875 1.375 4.6875 0 3 C0 2.01 0 1.02 0 0 Z " fill="#B86F25" transform="translate(261,186)"/>
<path d="M0 0 C0.33 0.66 0.66 1.32 1 2 C2.32 1.67 3.64 1.34 5 1 C4.34 2.32 3.68 3.64 3 5 C2.34 5 1.68 5 1 5 C1.33 5.66 1.66 6.32 2 7 C3.32 6.67 4.64 6.34 6 6 C6 6.66 6 7.32 6 8 C4.02 8.33 2.04 8.66 0 9 C0 7.35 0 5.7 0 4 C-0.66 4 -1.32 4 -2 4 C-2.33 5.98 -2.66 7.96 -3 10 C-3.33 10 -3.66 10 -4 10 C-4.25 7.25 -4.25 7.25 -4 4 C-2 1.625 -2 1.625 0 0 Z " fill="#8E8C8C" transform="translate(319,384)"/>
<path d="M0 0 C-0.99 0.495 -0.99 0.495 -2 1 C-2 1.99 -2 2.98 -2 4 C-3.65 4 -5.3 4 -7 4 C-7 4.66 -7 5.32 -7 6 C-8.32 6 -9.64 6 -11 6 C-8.67640938 -0.47285958 -6.6985661 -0.12404752 0 0 Z " fill="#B6B5B6" transform="translate(326,380)"/>
<path d="M0 0 C0 0.33 0 0.66 0 1 C-1.65 1.33 -3.3 1.66 -5 2 C-2.525 2.99 -2.525 2.99 0 4 C0 4.66 0 5.32 0 6 C-1.093125 5.9175 -2.18625 5.835 -3.3125 5.75 C-7.03442858 5.58896039 -7.03442858 5.58896039 -8.9375 8 C-9.288125 8.66 -9.63875 9.32 -10 10 C-9.40140845 3.65492958 -9.40140845 3.65492958 -7.8125 1.0625 C-5.19357381 -0.47273259 -2.97085195 -0.1980568 0 0 Z M-5 4 C-1 5 -1 5 -1 5 Z " fill="#959594" transform="translate(261,380)"/>
<path d="M0 0 C0.99 0 1.98 0 3 0 C3.33 3.96 3.66 7.92 4 12 C2.68 12.33 1.36 12.66 0 13 C0 8.71 0 4.42 0 0 Z " fill="#F0F0EF" transform="translate(417,381)"/>
<path d="M0 0 C2.5654594 2.5654594 2.54046087 4.47686668 3 8 C2.67 7.34 2.34 6.68 2 6 C1.34 6 0.68 6 0 6 C-0.33 9.96 -0.66 13.92 -1 18 C-1.33 18 -1.66 18 -2 18 C-2.05382106 15.37472811 -2.09358313 12.75055287 -2.125 10.125 C-2.14175781 9.37863281 -2.15851563 8.63226563 -2.17578125 7.86328125 C-2.1933959 5.90805539 -2.10320189 3.95257979 -2 2 C-1.34 1.34 -0.68 0.68 0 0 Z " fill="#AFAFB0" transform="translate(293,377)"/>
<path d="M0 0 C0.6875 1.6875 0.6875 1.6875 1 4 C-1.26153846 8.63076923 -1.26153846 8.63076923 -4 10 C-4 10.66 -4 11.32 -4 12 C-4.66 12 -5.32 12 -6 12 C-6 11.34 -6 10.68 -6 10 C-6.66 9.67 -7.32 9.34 -8 9 C-5.50174717 5.78796065 -2.9297008 2.82506863 0 0 Z " fill="#C9C9C9" transform="translate(65,128)"/>
<path d="M0 0 C1.65 0 3.3 0 5 0 C4.67 1.65 4.34 3.3 4 5 C5.65 5.33 7.3 5.66 9 6 C8.34 7.32 7.68 8.64 7 10 C2.78577758 7.11658466 1.23924145 4.95696581 0 0 Z " fill="#B47024" transform="translate(463,374)"/>
<path d="M0 0 C8.57142857 2 8.57142857 2 12 4 C12 4.66 12 5.32 12 6 C10.35 6.33 8.7 6.66 7 7 C7 6.34 7 5.68 7 5 C6.21625 5.04125 5.4325 5.0825 4.625 5.125 C2 5 2 5 0 3 C0 2.01 0 1.02 0 0 Z " fill="#D07926" transform="translate(459,327)"/>
<path d="M0 0 C0.33 0.99 0.66 1.98 1 3 C1.66 3 2.32 3 3 3 C3.33 2.34 3.66 1.68 4 1 C4 4.63 4 8.26 4 12 C3.01 11.01 2.02 10.02 1 9 C1 8.01 1 7.02 1 6 C0.01 6.33 -0.98 6.66 -2 7 C-2.33 5.35 -2.66 3.7 -3 2 C-2.34 2 -1.68 2 -1 2 C-0.67 1.34 -0.34 0.68 0 0 Z " fill="#6A6A6A" transform="translate(299,383)"/>
<path d="M0 0 C2.475 0.495 2.475 0.495 5 1 C5.33 3.64 5.66 6.28 6 9 C5.01 9.495 5.01 9.495 4 10 C0 3.375 0 3.375 0 0 Z " fill="#DC8C2D" transform="translate(394,314)"/>
<path d="M0 0 C1.98 0 3.96 0 6 0 C6 0.66 6 1.32 6 2 C9.5219721 2.08004482 12.61981469 2.04005702 16 1 C16 1.66 16 2.32 16 3 C13.22947819 3.92350727 11.43311242 4.16329585 8.5625 4.1875 C7.80066406 4.20167969 7.03882813 4.21585937 6.25390625 4.23046875 C3.76652685 3.97612666 2.15191894 3.24017196 0 2 C0 1.34 0 0.68 0 0 Z " fill="#CE8C34" transform="translate(169,255)"/>
<path d="M0 0 C0.33 1.32 0.66 2.64 1 4 C0.01 4.33 -0.98 4.66 -2 5 C-2.73323796 7.01508358 -2.73323796 7.01508358 -3 9 C-3.66 9 -4.32 9 -5 9 C-5 9.66 -5 10.32 -5 11 C-6.98 11.99 -6.98 11.99 -9 13 C-7.47987323 7.59510481 -3.72614782 4.01507372 0 0 Z " fill="#C37B2B" transform="translate(88,191)"/>
<path d="M0 0 C0 0.66 0 1.32 0 2 C-0.66 2 -1.32 2 -2 2 C-2 2.66 -2 3.32 -2 4 C-11.41002278 6.11161731 -11.41002278 6.11161731 -16 7 C-14.49135291 3.98270581 -12.19537486 3.63407458 -9.125 2.375 C-8.05507812 1.92898437 -6.98515625 1.48296875 -5.8828125 1.0234375 C-3 0 -3 0 0 0 Z " fill="#B9742C" transform="translate(210,175)"/>
<path d="M0 0 C0.66 0.99 1.32 1.98 2 3 C0.875 4.5 0.875 4.5 -1 6 C-4.1875 6.1875 -4.1875 6.1875 -7 6 C-6 4 -6 4 -3 2 C-3.598125 2.165 -4.19625 2.33 -4.8125 2.5 C-7 3 -7 3 -10 3 C-7.3046972 -0.80513337 -4.38206487 -0.47804344 0 0 Z " fill="#8C8A8A" transform="translate(367,380)"/>
<path d="M0 0 C0.66 0 1.32 0 2 0 C2 0.66 2 1.32 2 2 C1.34 2 0.68 2 0 2 C-0.33 3.65 -0.66 5.3 -1 7 C-1.99 7.33 -2.98 7.66 -4 8 C-4.73323796 10.01508358 -4.73323796 10.01508358 -5 12 C-5.66 12 -6.32 12 -7 12 C-6.6257368 6.63556087 -5.0040457 4.50353999 -1 1 C-0.67 0.67 -0.34 0.34 0 0 Z " fill="#C07C26" transform="translate(241,314)"/>
<path d="M0 0 C0 0.33 0 0.66 0 1 C-1.65 1.33 -3.3 1.66 -5 2 C-3.68 2.66 -2.36 3.32 -1 4 C-1 4.66 -1 5.32 -1 6 C-3.31 6 -5.62 6 -8 6 C-8 5.34 -8 4.68 -8 4 C-8.66 4 -9.32 4 -10 4 C-9.67 3.01 -9.34 2.02 -9 1 C-6.04335481 -0.4783226 -3.25770263 -0.06032783 0 0 Z M-6 4 C-2 5 -2 5 -2 5 Z " fill="#8D8C8B" transform="translate(464,380)"/>
<path d="M0 0 C0.99 0.33 1.98 0.66 3 1 C2.68289063 1.61230469 2.36578125 2.22460938 2.0390625 2.85546875 C0.56599636 7.31343206 0.53334142 11.644727 0.375 16.3125 C0.33632813 17.24384766 0.29765625 18.17519531 0.2578125 19.13476562 C0.16393687 21.42298407 0.07825491 23.71120295 0 26 C-0.33 26 -0.66 26 -1 26 C-1.02899599 22.22918278 -1.04679729 18.45839417 -1.0625 14.6875 C-1.07087891 13.61564453 -1.07925781 12.54378906 -1.08789062 11.43945312 C-1.09111328 10.41142578 -1.09433594 9.38339844 -1.09765625 8.32421875 C-1.10289307 7.37635498 -1.10812988 6.42849121 -1.11352539 5.4519043 C-1 3 -1 3 0 0 Z " fill="#D67B29" transform="translate(454,341)"/>
<path d="M0 0 C4.83628305 0.99043705 9.47618873 1.95698846 14 4 C14 4.33 14 4.66 14 5 C11.03 4.67 8.06 4.34 5 4 C5 4.66 5 5.32 5 6 C4.01 6 3.02 6 2 6 C2.33 5.01 2.66 4.02 3 3 C2.01 2.67 1.02 2.34 0 2 C0 1.34 0 0.68 0 0 Z " fill="#CD8423" transform="translate(242,177)"/>
<path d="M0 0 C1.32 0.66 2.64 1.32 4 2 C4 3.98 4 5.96 4 8 C3.01 8 2.02 8 1 8 C1 7.34 1 6.68 1 6 C-0.98 6.99 -0.98 6.99 -3 8 C-2.34 6.68 -1.68 5.36 -1 4 C-0.34 4 0.32 4 1 4 C1 3.34 1 2.68 1 2 C0.34 1.67 -0.32 1.34 -1 1 C-0.67 0.67 -0.34 0.34 0 0 Z " fill="#FA9117" transform="translate(481,374)"/>
<path d="M0 0 C1.21365463 4.019693 0.47082855 6.05198652 -1 10 C-1.69715342 12.32540436 -2.34538931 14.66210469 -3 17 C-3.66 17 -4.32 17 -5 17 C-4.46246904 10.81839396 -2.45417612 5.673142 0 0 Z " fill="#AE7027" transform="translate(78,204)"/>
<path d="M0 0 C0.99 0 1.98 0 3 0 C1.68938409 4.23429756 0.05643741 8.07407404 -2 12 C-2.33 12 -2.66 12 -3 12 C-3 9.69 -3 7.38 -3 5 C-2.34 5 -1.68 5 -1 5 C-0.67 3.35 -0.34 1.7 0 0 Z " fill="#C27C22" transform="translate(102,209)"/>
<path d="M0 0 C-0.99 1.485 -0.99 1.485 -2 3 C-5.625 3.6875 -5.625 3.6875 -9 4 C-9 4.66 -9 5.32 -9 6 C-10.32 5.67 -11.64 5.34 -13 5 C-9.37863252 0.80683766 -5.43991867 -0.3108525 0 0 Z " fill="#BC7E27" transform="translate(417,328)"/>
<path d="M0 0 C2.97 0.99 5.94 1.98 9 3 C9 3.33 9 3.66 9 4 C7.88625 4.12375 6.7725 4.2475 5.625 4.375 C1.96896323 4.6465813 1.96896323 4.6465813 0 7 C-1.125 2.25 -1.125 2.25 0 0 Z " fill="#F5F6F4" transform="translate(253,385)"/>
<path d="M0 0 C1.485 0.99 1.485 0.99 3 2 C4.06220073 7.31100363 4.13843694 11.73472917 3 17 C2.67 17 2.34 17 2 17 C1.95101563 16.25234375 1.90203125 15.5046875 1.8515625 14.734375 C1.77679688 13.74953125 1.70203125 12.7646875 1.625 11.75 C1.55539062 10.77546875 1.48578125 9.8009375 1.4140625 8.796875 C1.01297417 6.08763686 0.22334061 4.40413024 -1 2 C-0.67 1.34 -0.34 0.68 0 0 Z " fill="#955B1B" transform="translate(396,329)"/>
<path d="M0 0 C5.94 0 11.88 0 18 0 C18.66 1.32 19.32 2.64 20 4 C16.125 3.125 16.125 3.125 15 2 C12.47403741 1.76346477 9.96892793 1.57826308 7.4375 1.4375 C6.72658203 1.39431641 6.01566406 1.35113281 5.28320312 1.30664062 C3.52238088 1.20028223 1.7612168 1.09961154 0 1 C0 0.67 0 0.34 0 0 Z " fill="#D38C2F" transform="translate(363,328)"/>
<path d="M0 0 C0 0.66 0 1.32 0 2 C-1.96147874 3.38938077 -3.96166576 4.7260411 -6 6 C-6 5.34 -6 4.68 -6 4 C-8.31 4.33 -10.62 4.66 -13 5 C-8.94191935 2.2946129 -4.95110601 0 0 0 Z " fill="#C68027" transform="translate(118,175)"/>
<path d="M0 0 C6.93 0.495 6.93 0.495 14 1 C14 1.66 14 2.32 14 3 C10.04 3 6.08 3 2 3 C2 2.34 2 1.68 2 1 C1.34 0.67 0.68 0.34 0 0 Z " fill="#B67828" transform="translate(270,367)"/>
<path d="M0 0 C0.66 0 1.32 0 2 0 C3.66251802 5.57432514 4.18609365 9.3067505 3 15 C2.34 14.67 1.68 14.34 1 14 C0.5859375 10.83984375 0.5859375 10.83984375 0.375 6.9375 C0.30023438 5.64714844 0.22546875 4.35679687 0.1484375 3.02734375 C0.09945313 2.02832031 0.05046875 1.02929688 0 0 Z " fill="#E59631" transform="translate(298,352)"/>
<path d="M0 0 C0.99 0 1.98 0 3 0 C3.33 1.98 3.66 3.96 4 6 C2.35 6.33 0.7 6.66 -1 7 C-1.33 5.35 -1.66 3.7 -2 2 C-1.34 2 -0.68 2 0 2 C0 1.34 0 0.68 0 0 Z " fill="#E08924" transform="translate(403,334)"/>
<path d="M0 0 C0.33 0 0.66 0 1 0 C1.33 5.28 1.66 10.56 2 16 C1.01 16.33 0.02 16.66 -1 17 C-0.67 11.39 -0.34 5.78 0 0 Z " fill="#BD7633" transform="translate(72,221)"/>
<path d="M0 0 C0.99 0 1.98 0 3 0 C2.62671065 5.35048061 1.0042343 7.50912907 -3 11 C-2.67 9.68 -2.34 8.36 -2 7 C-1.34 7 -0.68 7 0 7 C0 4.69 0 2.38 0 0 Z " fill="#AA6A24" transform="translate(245,355)"/>
<path d="M0 0 C0.66 0 1.32 0 2 0 C2 3.96 2 7.92 2 12 C1.67 12 1.34 12 1 12 C0.67 10.35 0.34 8.7 0 7 C-0.66 7 -1.32 7 -2 7 C-2 5.35 -2 3.7 -2 2 C-1.34 2 -0.68 2 0 2 C0 1.34 0 0.68 0 0 Z " fill="#A66315" transform="translate(297,353)"/>
<path d="M0 0 C2.475 0.99 2.475 0.99 5 2 C4.2884375 2.556875 4.2884375 2.556875 3.5625 3.125 C1.47794198 5.62646962 1.35378509 7.81593418 1 11 C0.67 11 0.34 11 0 11 C-0.19406478 9.35492782 -0.38007935 7.70890406 -0.5625 6.0625 C-0.66691406 5.14597656 -0.77132813 4.22945313 -0.87890625 3.28515625 C-0.91886719 2.53105469 -0.95882813 1.77695312 -1 1 C-0.67 0.67 -0.34 0.34 0 0 Z " fill="#C67820" transform="translate(271,340)"/>
<path d="M0 0 C0.66 0.99 1.32 1.98 2 3 C1.30132812 2.91621094 0.60265625 2.83242188 -0.1171875 2.74609375 C-1.02726562 2.64425781 -1.93734375 2.54242188 -2.875 2.4375 C-3.77992188 2.33308594 -4.68484375 2.22867187 -5.6171875 2.12109375 C-8.01653057 1.80325148 -8.01653057 1.80325148 -10 3 C-9.67 2.01 -9.34 1.02 -9 0 C-5.46474216 -1.17841928 -3.5797952 -0.91399027 0 0 Z " fill="#965F23" transform="translate(360,319)"/>
<path d="M0 0 C0.66 0 1.32 0 2 0 C2 1.65 2 3.3 2 5 C3.32 5 4.64 5 6 5 C6 5.66 6 6.32 6 7 C3.69 6.67 1.38 6.34 -1 6 C-0.67 4.02 -0.34 2.04 0 0 Z " fill="#F9F8F9" transform="translate(317,388)"/>
<path d="M0 0 C-0.33 0.66 -0.66 1.32 -1 2 C-2.65 2 -4.3 2 -6 2 C-6.66 3.65 -7.32 5.3 -8 7 C-8.66 6.67 -9.32 6.34 -10 6 C-10 3 -10 3 -8.375 1.3125 C-5.41801336 -0.32162419 -3.32820054 -0.22692276 0 0 Z " fill="#F9F9F4" transform="translate(403,376)"/>
<path d="M0 0 C2.125 0.375 2.125 0.375 4 1 C1.61042731 4.24299151 -0.2047869 6.50902342 -4 8 C-2.25 2.25 -2.25 2.25 0 0 Z " fill="#BE7E28" transform="translate(263,332)"/>
<path d="M0 0 C0 3 0 3 -0.5625 5.375 C-1.03793985 8.22763909 -0.71486391 10.21997367 0 13 C-0.99 13 -1.98 13 -3 13 C-3.08086147 11.20906809 -3.13912702 9.41710372 -3.1875 7.625 C-3.22230469 6.62726563 -3.25710938 5.62953125 -3.29296875 4.6015625 C-3.14794922 3.31378906 -3.14794922 3.31378906 -3 2 C-2.01 1.34 -1.02 0.68 0 0 Z " fill="#E7922E" transform="translate(352,320)"/>
<path d="M0 0 C1.051875 0.01160156 1.051875 0.01160156 2.125 0.0234375 C2.82625 0.01570313 3.5275 0.00796875 4.25 0 C6.125 0.3984375 6.125 0.3984375 8.125 3.3984375 C4.165 3.3984375 0.205 3.3984375 -3.875 3.3984375 C-1.875 0.3984375 -1.875 0.3984375 0 0 Z " fill="#C6812F" transform="translate(317.875,327.6015625)"/>
<path d="M0 0 C0.33 0.99 0.66 1.98 1 3 C1.66 3 2.32 3 3 3 C3 5.97 3 8.94 3 12 C1 11 1 11 0 8 C-0.12781786 5.32605036 -0.04391871 2.67904143 0 0 Z " fill="#C47C2A" transform="translate(166,243)"/>
<path d="M0 0 C1.32 0 2.64 0 4 0 C4 2.64 4 5.28 4 8 C3.01 8.33 2.02 8.66 1 9 C1.04125 8.05125 1.0825 7.1025 1.125 6.125 C1.34973818 2.89755144 1.34973818 2.89755144 -1 1 C-0.67 0.67 -0.34 0.34 0 0 Z " fill="#D38426" transform="translate(187,222)"/>
<path d="M0 0 C0.66 0.66 1.32 1.32 2 2 C1.625 5.625 1.625 5.625 1 9 C0.67 8.01 0.34 7.02 0 6 C-0.99 6 -1.98 6 -3 6 C-3.33 6.66 -3.66 7.32 -4 8 C-4 7.34 -4 6.68 -4 6 C-5.65 6 -7.3 6 -9 6 C-9 5.67 -9 5.34 -9 5 C-6.03 5 -3.06 5 0 5 C-0.33 4.01 -0.66 3.02 -1 2 C-0.67 1.34 -0.34 0.68 0 0 Z " fill="#5D5D5C" transform="translate(264,384)"/>
<path d="M0 0 C2.64 0 5.28 0 8 0 C7.40072174 3.35595828 6.15377564 5.37801226 4 8 C3.71125 7.236875 3.4225 6.47375 3.125 5.6875 C2.03730987 2.84970692 2.03730987 2.84970692 0 0 Z " fill="#C27C1E" transform="translate(280,342)"/>
<path d="M0 0 C0.66 0 1.32 0 2 0 C1.67 1.98 1.34 3.96 1 6 C-0.98 6.33 -2.96 6.66 -5 7 C-3.47793991 4.37098712 -2.15634036 2.15634036 0 0 Z " fill="#C07723" transform="translate(447,330)"/>
<path d="M0 0 C0.66 0 1.32 0 2 0 C2.6875 1.8125 2.6875 1.8125 3 4 C1.625 5.5625 1.625 5.5625 0 7 C-0.33 7.99 -0.66 8.98 -1 10 C-1.99 10 -2.98 10 -4 10 C-4 9.34 -4 8.68 -4 8 C-3.34 8 -2.68 8 -2 8 C-1.34 5.36 -0.68 2.72 0 0 Z " fill="#DDDFDF" transform="translate(324,381)"/>
<path d="M0 0 C1.32 0.33 2.64 0.66 4 1 C4 1.33 4 1.66 4 2 C5.65 2.33 7.3 2.66 9 3 C9.33 4.32 9.66 5.64 10 7 C5.56541027 5.6062718 3.12621626 3.39417765 0 0 Z " fill="#B36F23" transform="translate(315,362)"/>
<path d="M0 0 C3.63 0 7.26 0 11 0 C11 0.33 11 0.66 11 1 C7.04 1.99 3.08 2.98 -1 4 C-0.67 2.68 -0.34 1.36 0 0 Z " fill="#B26D22" transform="translate(115,199)"/>
<path d="M0 0 C0.66 0 1.32 0 2 0 C2 0.66 2 1.32 2 2 C1.34 2 0.68 2 0 2 C0.185625 2.61875 0.37125 3.2375 0.5625 3.875 C1 6 1 6 0 8 C-1.65 7.67 -3.3 7.34 -5 7 C-4.34 6.67 -3.68 6.34 -3 6 C-2.29788106 4.34795544 -1.63028587 2.68076231 -1 1 C-0.67 0.67 -0.34 0.34 0 0 Z " fill="#E78C1F" transform="translate(114,196)"/>
<path d="M0 0 C1.65 0 3.3 0 5 0 C3.515 1.485 3.515 1.485 2 3 C3.65 3 5.3 3 7 3 C6.67 3.66 6.34 4.32 6 5 C3.69 5 1.38 5 -1 5 C-1.33 4.34 -1.66 3.68 -2 3 C-1.34 3 -0.68 3 0 3 C0 2.01 0 1.02 0 0 Z " fill="#707070" transform="translate(361,391)"/>
<path d="M0 0 C0.66 0 1.32 0 2 0 C2 1.98 2 3.96 2 6 C-0.97 5.505 -0.97 5.505 -4 5 C-3.67 4.34 -3.34 3.68 -3 3 C-2.34 3 -1.68 3 -1 3 C-0.67 2.01 -0.34 1.02 0 0 Z " fill="#F6F4F5" transform="translate(367,383)"/>
<path d="M0 0 C0.66 0 1.32 0 2 0 C2 0.66 2 1.32 2 2 C4.64 2.66 7.28 3.32 10 4 C10 4.33 10 4.66 10 5 C6.37 4.67 2.74 4.34 -1 4 C-0.67 2.68 -0.34 1.36 0 0 Z " fill="#EB962B" transform="translate(472,380)"/>
<path d="M0 0 C0.66 0.33 1.32 0.66 2 1 C2 1.66 2 2.32 2 3 C2.66 3 3.32 3 4 3 C4 3.99 4 4.98 4 6 C3.01 6.66 2.02 7.32 1 8 C0.01 7.67 -0.98 7.34 -2 7 C-1.34 7 -0.68 7 0 7 C0 4.69 0 2.38 0 0 Z " fill="#CD8227" transform="translate(238,361)"/>
<path d="M0 0 C0.66 0 1.32 0 2 0 C2.66 2.31 3.32 4.62 4 7 C3.34 7.66 2.68 8.32 2 9 C2 8.34 2 7.68 2 7 C1.34 7 0.68 7 0 7 C0 4.69 0 2.38 0 0 Z " fill="#E7851B" transform="translate(292,354)"/>
<path d="M0 0 C0 3 0 3 -1 5 C-1.66 5 -2.32 5 -3 5 C-3 5.66 -3 6.32 -3 7 C-4.32 6.67 -5.64 6.34 -7 6 C-2.25 1.125 -2.25 1.125 0 0 Z " fill="#B7B6B6" transform="translate(168,366)"/>
<path d="M0 0 C0.99 0.33 1.98 0.66 3 1 C1.875 3 1.875 3 0 5 C-3.1875 5.25 -3.1875 5.25 -6 5 C-6.33 4.34 -6.66 3.68 -7 3 C-4.69 3 -2.38 3 0 3 C0 2.01 0 1.02 0 0 Z " fill="#B6792C" transform="translate(309,365)"/>
<path d="M0 0 C0.99 0.33 1.98 0.66 3 1 C2.67 1.33 2.34 1.66 2 2 C2.28469203 7.02499694 2.28469203 7.02499694 5 11 C3.35 10.67 1.7 10.34 0 10 C0 6.7 0 3.4 0 0 Z " fill="#B07526" transform="translate(412,344)"/>
<path d="M0 0 C0.33 0.66 0.66 1.32 1 2 C0.00390625 4.1640625 0.00390625 4.1640625 -1.4375 6.625 C-1.91058594 7.44226563 -2.38367187 8.25953125 -2.87109375 9.1015625 C-3.24363281 9.72804687 -3.61617187 10.35453125 -4 11 C-4.66 11 -5.32 11 -6 11 C-4.54955729 6.89041233 -2.48889248 3.56741255 0 0 Z " fill="#A2A1A0" transform="translate(47,150)"/>
<path d="M0 0 C0.99 0.33 1.98 0.66 3 1 C3.33 2.98 3.66 4.96 4 7 C-0.875 4.25 -0.875 4.25 -2 2 C-1.34 2 -0.68 2 0 2 C0 1.34 0 0.68 0 0 Z " fill="#BCBBBC" transform="translate(262,130)"/>
<path d="M0 0 C2.64 0.66 5.28 1.32 8 2 C7.67 2.66 7.34 3.32 7 4 C5.02 4 3.04 4 1 4 C0.67 2.68 0.34 1.36 0 0 Z " fill="#A7A7A7" transform="translate(418,392)"/>
<path d="M0 0 C0.99 0 1.98 0 3 0 C3 1.32 3 2.64 3 4 C1.02 4.33 -0.96 4.66 -3 5 C-3.33 4.34 -3.66 3.68 -4 3 C-3.01 2.67 -2.02 2.34 -1 2 C-0.67 1.34 -0.34 0.68 0 0 Z " fill="#EFEEEF" transform="translate(366,390)"/>
<path d="M0 0 C2.5 1.3125 2.5 1.3125 5 3 C5 3.99 5 4.98 5 6 C3.35 5.67 1.7 5.34 0 5 C0 3.35 0 1.7 0 0 Z " fill="#B6B3B6" transform="translate(345,390)"/>
<path d="M0 0 C1.98 0.495 1.98 0.495 4 1 C3.67 2.32 3.34 3.64 3 5 C1.68 5 0.36 5 -1 5 C-0.67 3.35 -0.34 1.7 0 0 Z " fill="#C5BFC3" transform="translate(404,378)"/>
<path d="M0 0 C2.97 0.33 5.94 0.66 9 1 C9 1.66 9 2.32 9 3 C6.36 3 3.72 3 1 3 C0.67 2.01 0.34 1.02 0 0 Z " fill="#BB792A" transform="translate(227,367)"/>
<path d="M0 0 C0.99 0.33 1.98 0.66 3 1 C3 5.62 3 10.24 3 15 C2.67 15 2.34 15 2 15 C1.34 10.05 0.68 5.1 0 0 Z " fill="#A06926" transform="translate(256,220)"/>
<path d="M0 0 C2.0245738 1.93254772 3.42105792 3.63158688 5 6 C5 6.99 5 7.98 5 9 C3.0625 8.4375 3.0625 8.4375 1 7 C0.25 3.375 0.25 3.375 0 0 Z " fill="#A06820" transform="translate(273,199)"/>
<path d="M0 0 C1.98 0 3.96 0 6 0 C3.42215154 2.64752004 1.08351902 4.94432065 -2 7 C-2 6.01 -2 5.02 -2 4 C-1.34 4 -0.68 4 0 4 C0 2.68 0 1.36 0 0 Z " fill="#A87024" transform="translate(200,204)"/>
<path d="M0 0 C2.475 0.99 2.475 0.99 5 2 C2 4 2 4 -1 5 C-1.66 4.34 -2.32 3.68 -3 3 C-2.01 2.01 -1.02 1.02 0 0 Z " fill="#CFD0CF" transform="translate(261,104)"/>
<path d="M0 0 C0.66 0 1.32 0 2 0 C2 0.66 2 1.32 2 2 C2.66 2 3.32 2 4 2 C4.33 2.99 4.66 3.98 5 5 C3.35 5.33 1.7 5.66 0 6 C0 4.02 0 2.04 0 0 Z " fill="#F3F5F3" transform="translate(454,384)"/>
<path d="M0 0 C0.66 0 1.32 0 2 0 C2 0.99 2 1.98 2 3 C2.99 2.67 3.98 2.34 5 2 C4.67 3.32 4.34 4.64 4 6 C3.01 6 2.02 6 1 6 C0.67 4.02 0.34 2.04 0 0 Z " fill="#F8F8F6" transform="translate(235,386)"/>
<path d="M0 0 C1.32 0 2.64 0 4 0 C3.67 1.32 3.34 2.64 3 4 C1.02 4 -0.96 4 -3 4 C-1.75 2 -1.75 2 0 0 Z " fill="#A5A5A2" transform="translate(345,380)"/>
<path d="M0 0 C1.32 0.33 2.64 0.66 4 1 C3.34 3.31 2.68 5.62 2 8 C0 6 0 6 -0.125 2.875 C-0.08375 1.92625 -0.0425 0.9775 0 0 Z " fill="#F2F6F4" transform="translate(289,376)"/>
<path d="M0 0 C0.66 0 1.32 0 2 0 C3.625 2 3.625 2 5 4 C3.02 4.33 1.04 4.66 -1 5 C-1.33 4.01 -1.66 3.02 -2 2 C-1.34 2 -0.68 2 0 2 C0 1.34 0 0.68 0 0 Z " fill="#F4F5F5" transform="translate(82,361)"/>
<path d="M0 0 C0.33 0.99 0.66 1.98 1 3 C-1.91482778 3.80967438 -3.46113217 4.21845993 -6.3125 3.0625 C-6.869375 2.711875 -7.42625 2.36125 -8 2 C-2.25 0 -2.25 0 0 0 Z " fill="#CC7E23" transform="translate(426,353)"/>
<path d="M0 0 C0.99 0.33 1.98 0.66 3 1 C3.33 1.99 3.66 2.98 4 4 C3.01 4.495 3.01 4.495 2 5 C1.34 4.67 0.68 4.34 0 4 C0 4.66 0 5.32 0 6 C-0.66 6 -1.32 6 -2 6 C-2 4.68 -2 3.36 -2 2 C-1.34 2 -0.68 2 0 2 C0 1.34 0 0.68 0 0 Z " fill="#F29727" transform="translate(444,335)"/>
<path d="M0 0 C7.625 1.75 7.625 1.75 11 4 C3.57142857 4.28571429 3.57142857 4.28571429 0 2 C0 1.34 0 0.68 0 0 Z " fill="#C87625" transform="translate(279,327)"/>
<path d="M0 0 C0.99 0.33 1.98 0.66 3 1 C3.6875 3.0625 3.6875 3.0625 4 5 C2.68 5 1.36 5 0 5 C-0.99 5.495 -0.99 5.495 -2 6 C-1.125 1.125 -1.125 1.125 0 0 Z " fill="#F19728" transform="translate(81,202)"/>
<path d="M0 0 C0.66 0.33 1.32 0.66 2 1 C-3.14285714 6.57142857 -3.14285714 6.57142857 -7 7 C-4.78071806 4.09197539 -3.07030857 2.04687238 0 0 Z " fill="#AF7129" transform="translate(96,184)"/>
<path d="M0 0 C0.33 0 0.66 0 1 0 C1 2.64 1 5.28 1 8 C0.01 8.33 -0.98 8.66 -2 9 C-2 7.35 -2 5.7 -2 4 C-1.34 4 -0.68 4 0 4 C0 2.68 0 1.36 0 0 Z " fill="#BA711B" transform="translate(441,337)"/>
<path d="M0 0 C0.99 0.33 1.98 0.66 3 1 C3 2.65 3 4.3 3 6 C2.34 6 1.68 6 1 6 C1 5.34 1 4.68 1 4 C0.01 3.67 -0.98 3.34 -2 3 C-1.34 2.67 -0.68 2.34 0 2 C0 1.34 0 0.68 0 0 Z " fill="#DA8E2D" transform="translate(360,322)"/>
<path d="M0 0 C1.485 0.99 1.485 0.99 3 2 C2.67 4.31 2.34 6.62 2 9 C-0.57781906 6.42218094 -0.62129616 4.5598161 -1 1 C-0.67 0.67 -0.34 0.34 0 0 Z " fill="#C3C3C2" transform="translate(28,287)"/>
<path d="M0 0 C0.66 0 1.32 0 2 0 C2.33 2.97 2.66 5.94 3 9 C2.67 8.01 2.34 7.02 2 6 C1.34 6 0.68 6 0 6 C0 4.02 0 2.04 0 0 Z " fill="#D2862E" transform="translate(277,208)"/>
<path d="M0 0 C3.82097239 0.53069061 6.06171403 1.49701566 9 4 C8.01 4.33 7.02 4.66 6 5 C6 4.34 6 3.68 6 3 C4.68 3.33 3.36 3.66 2 4 C2 3.01 2 2.02 2 1 C1.34 0.67 0.68 0.34 0 0 Z " fill="#969596" transform="translate(232,90)"/>
<path d="M0 0 C1.65 0 3.3 0 5 0 C4.67 1.65 4.34 3.3 4 5 C3.01 4.67 2.02 4.34 1 4 C0.3125 1.9375 0.3125 1.9375 0 0 Z " fill="#CC872D" transform="translate(463,374)"/>
<path d="M0 0 C0.33 0.66 0.66 1.32 1 2 C4.02934491 2.65772428 4.02934491 2.65772428 7 3 C7 3.66 7 4.32 7 5 C4.69 4.67 2.38 4.34 0 4 C0 2.68 0 1.36 0 0 Z " fill="#B4711F" transform="translate(272,352)"/>
<path d="M0 0 C0.66 0 1.32 0 2 0 C2.33 0.99 2.66 1.98 3 3 C2.01 4.485 2.01 4.485 1 6 C0.01 6 -0.98 6 -2 6 C-1.34 4.02 -0.68 2.04 0 0 Z " fill="#E7942C" transform="translate(285,348)"/>
<path d="M0 0 C-2.97 2.475 -2.97 2.475 -6 5 C-6 3.35 -6 1.7 -6 0 C-3.50907189 -1.24546405 -2.58919267 -0.7767578 0 0 Z " fill="#A06B29" transform="translate(112,205)"/>
<path d="M0 0 C0.99 0.33 1.98 0.66 3 1 C2.67 2.98 2.34 4.96 2 7 C0.68 6.34 -0.64 5.68 -2 5 C-1.34 3.35 -0.68 1.7 0 0 Z " fill="#C4C5C4" transform="translate(274,139)"/>
</svg>
